<svg width="68" height="68" viewBox="0 0 68 68" fill="none" xmlns="http://www.w3.org/2000/svg">
<circle cx="34" cy="34" r="33" fill="#F6C3FF" stroke="#7F0098" stroke-width="2"/>
<path d="M46.5 31.0833H46.0833C44.2333 26.2167 39.5333 22.9 34.3 22.7667C32.6333 22.2333 31.8833 21.25 31.9333 20.8333C31.9667 20.5667 32.2333 20.25 32.3333 20.25C32.4333 20.25 32.7 20.45 32.7667 20.8667C32.8833 21.55 33.5167 22.0167 34.2 21.9C34.8833 21.7833 35.35 21.15 35.2333 20.4667C34.9833 18.9167 33.7667 17.7667 32.3667 17.75C30.8667 17.7833 29.6333 19.15 29.45 20.5C29.3167 21.4833 29.6833 22.45 30.4333 23.2833C26.5833 24.4 23.3667 27.2667 21.9167 31.0833H21.5C19.4333 31.0833 17.75 32.7667 17.75 34.8333C17.75 36.9 19.3833 38.5333 21.4167 38.5833C22.75 44.35 27.9833 48.5833 34 48.5833C40.0167 48.5833 45.25 44.35 46.5833 38.5833C48.6167 38.5333 50.25 36.8667 50.25 34.8333C50.25 32.8 48.5667 31.0833 46.5 31.0833ZM30.6833 32.75H30.7C31.3833 32.75 31.95 33.3167 31.95 34C31.95 34.6833 31.3833 35.25 30.7 35.25C30.0167 35.25 29.45 34.6833 29.45 34C29.45 33.3167 30 32.75 30.6833 32.75ZM38.3333 41.4167C38.0667 41.7833 36.5833 43.5833 34 43.5833C33.55 43.5833 31.2167 43.4833 29.6667 41.4167C29.25 40.8667 29.3667 40.0833 29.9167 39.6667C30.4667 39.25 31.25 39.3667 31.6667 39.9167C32.5167 41.05 33.85 41.0833 34 41.0833C35.4167 41.0833 36.25 40.0333 36.3333 39.9167C36.75 39.3667 37.5333 39.25 38.0833 39.6667C38.6333 40.0833 38.75 40.8667 38.3333 41.4167ZM37.3667 35.25C36.6833 35.25 36.1167 34.6833 36.1167 34C36.1167 33.3167 36.6667 32.75 37.35 32.75H37.3667C38.05 32.75 38.6167 33.3167 38.6167 34C38.6167 34.6833 38.05 35.25 37.3667 35.25Z" fill="#7F0098"/>
</svg>
