<svg width="795" height="75" viewBox="0 0 795 75" fill="none" xmlns="http://www.w3.org/2000/svg">
<g clip-path="url(#clip0_25_167)">
<ellipse cx="74.8577" cy="75" rx="71.1148" ry="71.25" fill="#FFBF00"/>
<path fill-rule="evenodd" clip-rule="evenodd" d="M298.578 47.5413L248.605 11.5073C241.195 6.16423 231.164 6.16423 223.754 11.5073L173.779 47.5413C166.369 52.8844 163.27 62.3545 166.101 70.9998L185.189 129.306C188.017 137.951 196.133 143.802 205.293 143.802H267.066C276.223 143.802 284.34 137.951 287.168 129.306L306.258 70.9998C309.087 62.3545 305.987 52.8844 298.578 47.5413Z" fill="#FFBF00"/>
<path fill-rule="evenodd" clip-rule="evenodd" d="M445.705 3.75H349.295C336.643 3.75 326.385 13.9784 326.385 26.5951V122.741C326.385 135.357 336.643 145.586 349.295 145.586H445.705C458.357 145.586 468.615 135.357 468.615 122.741V26.5951C468.615 13.9784 458.357 3.75 445.705 3.75Z" fill="#FFBF00"/>
<path fill-rule="evenodd" clip-rule="evenodd" d="M627.266 65.3375L601.676 21.182C598.116 15.0366 591.533 11.25 584.41 11.25H533.23C526.11 11.25 519.529 15.0366 515.966 21.182L490.377 65.3375C486.816 71.4804 486.816 79.0511 490.377 85.1965L515.966 129.352C519.529 135.497 526.11 139.282 533.23 139.282H584.41C591.533 139.282 598.116 135.497 601.676 129.352L627.266 85.1965C630.826 79.0511 630.826 71.4804 627.266 65.3375Z" fill="#FFBF00"/>
<path fill-rule="evenodd" clip-rule="evenodd" d="M777.98 44.9074L752.709 35.8596L737.099 14.0022C729.3 3.08434 713.189 2.78678 704.994 13.4119L688.592 34.6791L663.004 42.7906C650.221 46.8428 644.962 62.0886 652.52 73.1758L667.655 95.3695L667.452 122.24C667.35 135.664 680.211 145.384 693.076 141.61L718.835 134.057L744.297 142.554C757.017 146.799 770.222 137.558 770.616 124.141L771.401 97.2807L787.339 75.6603C795.3 64.861 790.606 49.4289 777.98 44.9074Z" fill="#FFBF00"/>
</g>
<defs>
<clipPath id="clip0_25_167">
<rect width="795" height="75" fill="white"/>
</clipPath>
</defs>
</svg>
