<svg width="684" height="75" viewBox="0 0 684 75" fill="none" xmlns="http://www.w3.org/2000/svg">
<g clip-path="url(#clip0_9_387)">
<ellipse cx="18.8576" cy="75" rx="71.1148" ry="71.25" fill="#FFBF00"/>
<path fill-rule="evenodd" clip-rule="evenodd" d="M242.578 47.5413L192.605 11.5073C185.195 6.16423 175.164 6.16423 167.754 11.5073L117.779 47.5413C110.369 52.8844 107.27 62.3545 110.101 70.9998L129.188 129.306C132.017 137.951 140.133 143.802 149.293 143.802H211.066C220.223 143.802 228.34 137.951 231.168 129.306L250.258 70.9998C253.087 62.3545 249.987 52.8844 242.578 47.5413Z" fill="#FFBF00"/>
<path fill-rule="evenodd" clip-rule="evenodd" d="M389.705 3.75H293.295C280.643 3.75 270.385 13.9784 270.385 26.5951V122.741C270.385 135.357 280.643 145.586 293.295 145.586H389.705C402.357 145.586 412.615 135.357 412.615 122.741V26.5951C412.615 13.9784 402.357 3.75 389.705 3.75Z" fill="#FFBF00"/>
<path fill-rule="evenodd" clip-rule="evenodd" d="M571.266 65.3375L545.676 21.182C542.116 15.0366 535.533 11.25 528.41 11.25H477.23C470.11 11.25 463.529 15.0366 459.966 21.182L434.377 65.3375C430.816 71.4804 430.816 79.0511 434.377 85.1965L459.966 129.352C463.529 135.497 470.11 139.282 477.23 139.282H528.41C535.533 139.282 542.116 135.497 545.676 129.352L571.266 85.1965C574.826 79.0511 574.826 71.4804 571.266 65.3375Z" fill="#FFBF00"/>
<path fill-rule="evenodd" clip-rule="evenodd" d="M721.98 44.9074L696.709 35.8596L681.099 14.0022C673.3 3.08434 657.189 2.78678 648.994 13.4119L632.592 34.6791L607.004 42.7906C594.221 46.8428 588.962 62.0886 596.52 73.1758L611.655 95.3695L611.452 122.24C611.35 135.664 624.211 145.384 637.076 141.61L662.835 134.057L688.297 142.554C701.017 146.799 714.222 137.558 714.616 124.141L715.401 97.2806L731.339 75.6603C739.3 64.861 734.606 49.4289 721.98 44.9074Z" fill="#FFBF00"/>
</g>
<defs>
<clipPath id="clip0_9_387">
<rect width="684" height="75" fill="white"/>
</clipPath>
</defs>
</svg>
