<svg width="523" height="534" viewBox="0 0 523 534" fill="none" xmlns="http://www.w3.org/2000/svg">
<path d="M336.947 271.784C355.663 272.451 389.215 235.045 389.055 219.244C388.897 203.442 369.033 151.396 363.08 142.524C357.128 133.669 319.026 145.433 319.026 145.433C319.026 145.433 273.366 269.524 336.947 271.784Z" fill="#FFFBC5" stroke="#FFBF00" stroke-width="2" stroke-linecap="round" stroke-linejoin="round"/>
<path d="M337.013 214.921V208.105H334.325V206.521H341.645V208.105H338.957V214.921H337.013ZM346.654 215.065C345.99 215.065 345.374 214.957 344.806 214.741C344.246 214.525 343.758 214.221 343.342 213.829C342.934 213.437 342.614 212.977 342.382 212.449C342.158 211.921 342.046 211.345 342.046 210.721C342.046 210.097 342.158 209.521 342.382 208.993C342.614 208.465 342.938 208.005 343.354 207.613C343.77 207.221 344.258 206.917 344.818 206.701C345.378 206.485 345.986 206.377 346.642 206.377C347.306 206.377 347.914 206.485 348.466 206.701C349.026 206.917 349.51 207.221 349.918 207.613C350.334 208.005 350.658 208.465 350.89 208.993C351.122 209.513 351.238 210.089 351.238 210.721C351.238 211.345 351.122 211.925 350.89 212.461C350.658 212.989 350.334 213.449 349.918 213.841C349.51 214.225 349.026 214.525 348.466 214.741C347.914 214.957 347.31 215.065 346.654 215.065ZM346.642 213.409C347.018 213.409 347.362 213.345 347.674 213.217C347.994 213.089 348.274 212.905 348.514 212.665C348.754 212.425 348.938 212.141 349.066 211.813C349.202 211.485 349.27 211.121 349.27 210.721C349.27 210.321 349.202 209.957 349.066 209.629C348.938 209.301 348.754 209.017 348.514 208.777C348.282 208.537 348.006 208.353 347.686 208.225C347.366 208.097 347.018 208.033 346.642 208.033C346.266 208.033 345.918 208.097 345.598 208.225C345.286 208.353 345.01 208.537 344.77 208.777C344.53 209.017 344.342 209.301 344.206 209.629C344.078 209.957 344.014 210.321 344.014 210.721C344.014 211.113 344.078 211.477 344.206 211.813C344.342 212.141 344.526 212.425 344.758 212.665C344.998 212.905 345.278 213.089 345.598 213.217C345.918 213.345 346.266 213.409 346.642 213.409Z" fill="#FFFBC5"/>
<path d="M364.512 227.826C366.934 224.646 368.587 219.686 372.025 217.652C373.932 216.523 375.781 212.215 376.989 211.659C379.667 210.481 391.123 182.471 401.054 185.524C402.326 185.921 435.782 189.561 438.423 194.268C441.033 193.68 458.857 184.047 468.442 188.464C479.102 193.393 481.488 212.47 481.459 212.66C481.583 213.041 480.502 219.353 480.314 219.543C478.977 220.704 474.203 218.606 475.409 222.025C476.94 226.38 481.33 234.311 486.997 229.702C482.732 237.334 479.04 248.301 470.765 250.304C464.015 251.942 465.413 265.884 464.747 271.243C464.207 275.596 464.97 281.05 465.926 285.309C467.26 291.066 464.971 295.292 463.824 300.888C462.869 305.719 463.57 310.522 462.677 315.163C462.362 316.656 457.555 321.807 456.216 323.461C454.338 321.805 381.89 280.221 371.258 281.362C372.593 277.023 374.091 270.265 370.397 266.592C360.372 256.641 370.24 244.147 370.208 244.034C369.574 242.032 363.937 236.977 370.178 235.705C366.488 236.818 367.919 231.03 371.195 232.208C368.522 231.26 365.405 231.021 364.512 227.826Z" fill="#7F0098" stroke="#FFBF00" stroke-width="2" stroke-linecap="round" stroke-linejoin="round"/>
<path d="M419.819 240.229V231.829H423.923C424.979 231.829 425.771 232.029 426.299 232.429C426.835 232.829 427.103 233.357 427.103 234.013C427.103 234.453 426.995 234.837 426.779 235.165C426.563 235.485 426.267 235.733 425.891 235.909C425.515 236.085 425.083 236.173 424.595 236.173L424.823 235.681C425.351 235.681 425.819 235.769 426.227 235.945C426.635 236.113 426.951 236.365 427.175 236.701C427.407 237.037 427.523 237.449 427.523 237.937C427.523 238.657 427.239 239.221 426.671 239.629C426.103 240.029 425.267 240.229 424.163 240.229H419.819ZM421.751 238.765H424.019C424.523 238.765 424.903 238.685 425.159 238.525C425.423 238.357 425.555 238.093 425.555 237.733C425.555 237.381 425.423 237.121 425.159 236.953C424.903 236.777 424.523 236.689 424.019 236.689H421.607V235.273H423.683C424.155 235.273 424.515 235.193 424.763 235.033C425.019 234.865 425.147 234.613 425.147 234.277C425.147 233.949 425.019 233.705 424.763 233.545C424.515 233.377 424.155 233.293 423.683 233.293H421.751V238.765ZM427.891 240.229L431.635 231.829H433.555L437.311 240.229H435.271L432.199 232.813H432.967L429.883 240.229H427.891ZM429.763 238.429L430.279 236.953H434.599L435.127 238.429H429.763Z" fill="#FFFBC5"/>
<path d="M475.255 220.814C475.86 219.067 478.12 219.973 479.361 219.893C482.003 219.702 479.935 216.714 480.634 215.507C482.988 211.104 477.451 208.543 478.311 203.425C482.988 205.666 489.292 207.368 492.732 211.423C494.293 213.203 499.129 214.506 499.51 217.05C491.582 217.495 491.49 227.287 485.631 230.483C481.047 232.977 473.504 223.12 475.255 220.814Z" fill="#7F0098" stroke="#FFBF00" stroke-width="2" stroke-linecap="round" stroke-linejoin="round"/>
<path d="M485.5 209.235C493.272 209.235 499.594 215.525 499.594 223.309C499.594 231.069 493.273 237.381 485.5 237.381C477.697 237.381 471.416 231.067 471.416 223.309L485.5 209.235ZM485.5 209.235C477.696 209.235 471.413 215.529 471.416 223.309L485.5 209.235Z" fill="#7F0098" stroke="#FFBF00" stroke-width="2"/>
<path d="M481.32 227.379C480.648 227.379 480.004 227.291 479.388 227.115C478.772 226.931 478.276 226.695 477.9 226.407L478.56 224.943C478.92 225.199 479.344 225.411 479.832 225.579C480.328 225.739 480.828 225.819 481.332 225.819C481.716 225.819 482.024 225.783 482.256 225.711C482.496 225.631 482.672 225.523 482.784 225.387C482.896 225.251 482.952 225.095 482.952 224.919C482.952 224.695 482.864 224.519 482.688 224.391C482.512 224.255 482.28 224.147 481.992 224.067C481.704 223.979 481.384 223.899 481.032 223.827C480.688 223.747 480.34 223.651 479.988 223.539C479.644 223.427 479.328 223.283 479.04 223.107C478.752 222.931 478.516 222.699 478.332 222.411C478.156 222.123 478.068 221.755 478.068 221.307C478.068 220.827 478.196 220.391 478.452 219.999C478.716 219.599 479.108 219.283 479.628 219.051C480.156 218.811 480.816 218.691 481.608 218.691C482.136 218.691 482.656 218.755 483.168 218.883C483.68 219.003 484.132 219.187 484.524 219.435L483.924 220.911C483.532 220.687 483.14 220.523 482.748 220.419C482.356 220.307 481.972 220.251 481.596 220.251C481.22 220.251 480.912 220.295 480.672 220.383C480.432 220.471 480.26 220.587 480.156 220.731C480.052 220.867 480 221.027 480 221.211C480 221.427 480.088 221.603 480.264 221.739C480.44 221.867 480.672 221.971 480.96 222.051C481.248 222.131 481.564 222.211 481.908 222.291C482.26 222.371 482.608 222.463 482.952 222.567C483.304 222.671 483.624 222.811 483.912 222.987C484.2 223.163 484.432 223.395 484.608 223.683C484.792 223.971 484.884 224.335 484.884 224.775C484.884 225.247 484.752 225.679 484.488 226.071C484.224 226.463 483.828 226.779 483.3 227.019C482.78 227.259 482.12 227.379 481.32 227.379ZM488.001 222.219H492.045V223.731H488.001V222.219ZM488.145 225.675H492.717V227.235H486.213V218.835H492.561V220.395H488.145V225.675Z" fill="#FFFBC5"/>
<path d="M433.938 192.377C437.086 191.454 441.164 176.001 443.613 174.84C448.42 172.535 463.667 173.172 464.301 180.532C463.793 180.453 473.818 177.894 472.993 178.83C474.969 178.005 485.217 173.348 487.636 173.235C487.954 173.22 492.986 174.286 491.202 175.922C490.662 176.432 496.105 180.215 503.741 179.927C509.157 179.723 509.76 175.939 513.767 174.809C520.613 172.87 519.273 179.102 520.263 182.869C518.889 185.985 518.35 189.354 517.078 192.487C515.297 196.889 505.684 203.853 501.516 206.555C493.047 212.102 476.177 201.834 475.062 199.973C474.362 198.83 472.098 194.028 471.368 194.045C470.637 194.458 470.16 195.044 469.872 195.808C468.822 195.793 461.439 191.707 461.153 190.404C455.611 189.068 454.848 197.495 450.743 197.59C450.998 197.715 441.162 205.346 442.02 201.437C446.193 196.047 435.367 193.918 433.938 192.377Z" fill="#7F0098" stroke="#FFBF00" stroke-width="2" stroke-linecap="round" stroke-linejoin="round"/>
<path d="M468.065 188.777V180.377H471.701C472.453 180.377 473.101 180.501 473.645 180.749C474.189 180.989 474.609 181.337 474.905 181.793C475.201 182.249 475.349 182.793 475.349 183.425C475.349 184.049 475.201 184.589 474.905 185.045C474.609 185.501 474.189 185.853 473.645 186.101C473.101 186.341 472.453 186.461 471.701 186.461H469.145L470.009 185.585V188.777H468.065ZM470.009 185.801L469.145 184.877H471.593C472.193 184.877 472.641 184.749 472.937 184.493C473.233 184.237 473.381 183.881 473.381 183.425C473.381 182.961 473.233 182.601 472.937 182.345C472.641 182.089 472.193 181.961 471.593 181.961H469.145L470.009 181.037V185.801ZM478.525 183.761H482.569V185.273H478.525V183.761ZM478.669 187.217H483.241V188.777H476.737V180.377H483.085V181.937H478.669V187.217Z" fill="#FFFBC5"/>
<path d="M481.521 194.443C485.915 198.289 492.474 200.834 496.104 200.818C499.857 200.803 501.925 196.954 504.729 195.252C506.097 194.426 516.696 193.012 515.391 196.462C513.291 202.09 507.114 206.428 503.741 211.308C500.496 213.63 499.763 219.542 496.356 213.472C492.568 213.964 492.03 208.337 488.271 208.275C484.007 205.65 478.975 203.9 475.252 200.913C477.642 198.655 480.124 197.161 481.521 194.443Z" fill="#7F0098" stroke="#FFBF00" stroke-width="2" stroke-linecap="round" stroke-linejoin="round"/>
<path d="M521.59 207.327C521.59 199.552 515.308 193.235 507.506 193.235C499.699 193.235 493.416 199.55 493.416 207.327C493.416 215.085 499.7 221.398 507.506 221.398C515.309 221.398 521.59 215.084 521.59 207.327Z" fill="#7F0098" stroke="#FFBF00" stroke-width="2"/>
<path d="M499.593 211.235L503.337 202.835H505.257L509.013 211.235H506.973L503.901 203.819H504.669L501.585 211.235H499.593ZM501.465 209.435L501.981 207.959H506.301L506.829 209.435H501.465ZM509.885 211.235V202.835H511.829V209.651H516.041V211.235H509.885Z" fill="#FFFBC5"/>
<path d="M470.765 159.358C473.535 154.683 478.406 152.25 480.632 146.415C482.925 140.487 485.088 139.661 490.818 141.027C496.677 142.428 501.672 141.998 507.752 142.966C516.508 144.351 515.711 155.699 518.451 162.139C516.221 163.412 502.213 162.744 500.943 160.216C499.734 157.816 497.568 168.466 495.023 168.69C496.804 161.903 480.316 170.757 488.719 158.61C491.677 154.35 481.395 157.672 480.919 159.452C477.068 165.415 473.693 159.771 470.765 159.358Z" fill="#7F0098" stroke="#FFBF00" stroke-width="2" stroke-linecap="round" stroke-linejoin="round"/>
<path d="M515.591 136.308C515.591 128.532 509.308 122.235 501.503 122.235C493.736 122.235 487.416 128.531 487.416 136.308C487.416 144.087 493.736 150.38 501.503 150.38C509.308 150.38 515.591 144.085 515.591 136.308Z" fill="#7F0098" stroke="#FFBF00" stroke-width="2"/>
<mask id="path-15-inside-1_263_186" fill="white">
<path d="M492.654 140.235V131.835H496.29C497.042 131.835 497.69 131.959 498.234 132.207C498.778 132.447 499.198 132.795 499.494 133.251C499.79 133.707 499.938 134.251 499.938 134.883C499.938 135.507 499.79 136.047 499.494 136.503C499.198 136.951 498.778 137.295 498.234 137.535C497.69 137.775 497.042 137.895 496.29 137.895H493.734L494.598 137.043V140.235H492.654ZM497.994 140.235L495.894 137.187H497.97L500.094 140.235H497.994ZM494.598 137.259L493.734 136.347H496.182C496.782 136.347 497.23 136.219 497.526 135.963C497.822 135.699 497.97 135.339 497.97 134.883C497.97 134.419 497.822 134.059 497.526 133.803C497.23 133.547 496.782 133.419 496.182 133.419H493.734L494.598 132.495V137.259ZM501.478 140.235V131.835H503.086L508.042 137.883H507.262V131.835H509.182V140.235H507.586L502.618 134.187H503.398V140.235H501.478Z"/>
</mask>
<path d="M492.654 140.235V131.835H496.29C497.042 131.835 497.69 131.959 498.234 132.207C498.778 132.447 499.198 132.795 499.494 133.251C499.79 133.707 499.938 134.251 499.938 134.883C499.938 135.507 499.79 136.047 499.494 136.503C499.198 136.951 498.778 137.295 498.234 137.535C497.69 137.775 497.042 137.895 496.29 137.895H493.734L494.598 137.043V140.235H492.654ZM497.994 140.235L495.894 137.187H497.97L500.094 140.235H497.994ZM494.598 137.259L493.734 136.347H496.182C496.782 136.347 497.23 136.219 497.526 135.963C497.822 135.699 497.97 135.339 497.97 134.883C497.97 134.419 497.822 134.059 497.526 133.803C497.23 133.547 496.782 133.419 496.182 133.419H493.734L494.598 132.495V137.259ZM501.478 140.235V131.835H503.086L508.042 137.883H507.262V131.835H509.182V140.235H507.586L502.618 134.187H503.398V140.235H501.478Z" fill="white"/>
<path d="M492.654 140.235H490.654V142.235H492.654V140.235ZM492.654 131.835V129.835H490.654V131.835H492.654ZM498.234 132.207L497.405 134.027L497.416 134.032L497.427 134.037L498.234 132.207ZM499.494 133.251L497.817 134.34L497.817 134.34L499.494 133.251ZM499.494 136.503L501.163 137.606L501.167 137.599L501.172 137.592L499.494 136.503ZM498.234 137.535L499.041 139.365H499.041L498.234 137.535ZM493.734 137.895L492.33 136.471L488.858 139.895H493.734V137.895ZM494.598 137.043H496.598V132.262L493.194 135.619L494.598 137.043ZM494.598 140.235V142.235H496.598V140.235H494.598ZM497.994 140.235L496.347 141.37L496.943 142.235H497.994V140.235ZM495.894 137.187V135.187H492.088L494.247 138.322L495.894 137.187ZM497.97 137.187L499.611 136.044L499.014 135.187H497.97V137.187ZM500.094 140.235V142.235H503.926L501.735 139.092L500.094 140.235ZM494.598 137.259L493.146 138.635L496.598 142.278V137.259H494.598ZM493.734 136.347V134.347H489.084L492.282 137.723L493.734 136.347ZM497.526 135.963L498.835 137.476L498.846 137.466L498.857 137.456L497.526 135.963ZM493.734 133.419L492.273 132.053L489.126 135.419H493.734V133.419ZM494.598 132.495H496.598V127.428L493.137 131.129L494.598 132.495ZM494.654 140.235V131.835H490.654V140.235H494.654ZM492.654 133.835H496.29V129.835H492.654V133.835ZM496.29 133.835C496.827 133.835 497.179 133.924 497.405 134.027L499.064 130.387C498.201 129.994 497.257 129.835 496.29 129.835V133.835ZM497.427 134.037C497.65 134.135 497.752 134.241 497.817 134.34L501.172 132.162C500.644 131.349 499.907 130.759 499.041 130.377L497.427 134.037ZM497.817 134.34C497.87 134.422 497.938 134.573 497.938 134.883H501.938C501.938 133.929 501.711 132.992 501.172 132.162L497.817 134.34ZM497.938 134.883C497.938 135.179 497.872 135.328 497.817 135.414L501.172 137.592C501.708 136.766 501.938 135.835 501.938 134.883H497.938ZM497.826 135.401C497.763 135.495 497.659 135.603 497.427 135.705L499.041 139.365C499.897 138.987 500.633 138.407 501.163 137.606L497.826 135.401ZM497.427 135.705C497.195 135.807 496.835 135.895 496.29 135.895V139.895C497.249 139.895 498.185 139.743 499.041 139.365L497.427 135.705ZM496.29 135.895H493.734V139.895H496.29V135.895ZM495.138 139.319L496.002 138.467L493.194 135.619L492.33 136.471L495.138 139.319ZM492.598 137.043V140.235H496.598V137.043H492.598ZM494.598 138.235H492.654V142.235H494.598V138.235ZM499.641 139.1L497.541 136.052L494.247 138.322L496.347 141.37L499.641 139.1ZM495.894 139.187H497.97V135.187H495.894V139.187ZM496.329 138.33L498.453 141.378L501.735 139.092L499.611 136.044L496.329 138.33ZM500.094 138.235H497.994V142.235H500.094V138.235ZM496.05 135.884L495.186 134.972L492.282 137.723L493.146 138.635L496.05 135.884ZM493.734 138.347H496.182V134.347H493.734V138.347ZM496.182 138.347C497.017 138.347 498.025 138.176 498.835 137.476L496.218 134.45C496.328 134.355 496.416 134.329 496.419 134.328C496.42 134.328 496.402 134.333 496.361 134.338C496.321 134.343 496.262 134.347 496.182 134.347V138.347ZM498.857 137.456C499.645 136.754 499.97 135.815 499.97 134.883H495.97C495.97 134.894 495.969 134.834 496.009 134.735C496.053 134.629 496.121 134.536 496.195 134.47L498.857 137.456ZM499.97 134.883C499.97 133.957 499.652 132.998 498.835 132.29L496.218 135.316C496.13 135.24 496.055 135.137 496.009 135.026C495.967 134.923 495.97 134.863 495.97 134.883H499.97ZM498.835 132.29C498.025 131.59 497.017 131.419 496.182 131.419V135.419C496.262 135.419 496.321 135.423 496.361 135.428C496.402 135.433 496.42 135.438 496.419 135.438C496.416 135.437 496.328 135.411 496.218 135.316L498.835 132.29ZM496.182 131.419H493.734V135.419H496.182V131.419ZM495.195 134.785L496.059 133.861L493.137 131.129L492.273 132.053L495.195 134.785ZM492.598 132.495V137.259H496.598V132.495H492.598ZM501.478 140.235H499.478V142.235H501.478V140.235ZM501.478 131.835V129.835H499.478V131.835H501.478ZM503.086 131.835L504.633 130.567L504.033 129.835H503.086V131.835ZM508.042 137.883V139.883H512.267L509.589 136.615L508.042 137.883ZM507.262 137.883H505.262V139.883H507.262V137.883ZM507.262 131.835V129.835H505.262V131.835H507.262ZM509.182 131.835H511.182V129.835H509.182V131.835ZM509.182 140.235V142.235H511.182V140.235H509.182ZM507.586 140.235L506.041 141.505L506.641 142.235H507.586V140.235ZM502.618 134.187V132.187H498.387L501.073 135.457L502.618 134.187ZM503.398 134.187H505.398V132.187H503.398V134.187ZM503.398 140.235V142.235H505.398V140.235H503.398ZM503.478 140.235V131.835H499.478V140.235H503.478ZM501.478 133.835H503.086V129.835H501.478V133.835ZM501.539 133.103L506.495 139.151L509.589 136.615L504.633 130.567L501.539 133.103ZM508.042 135.883H507.262V139.883H508.042V135.883ZM509.262 137.883V131.835H505.262V137.883H509.262ZM507.262 133.835H509.182V129.835H507.262V133.835ZM507.182 131.835V140.235H511.182V131.835H507.182ZM509.182 138.235H507.586V142.235H509.182V138.235ZM509.132 138.966L504.164 132.918L501.073 135.457L506.041 141.505L509.132 138.966ZM502.618 136.187H503.398V132.187H502.618V136.187ZM501.398 134.187V140.235H505.398V134.187H501.398ZM503.398 138.235H501.478V142.235H503.398V138.235Z" fill="#FFFBC5" mask="url(#path-15-inside-1_263_186)"/>
<path d="M433.203 119.44C433.711 117.852 436.645 115.23 434.415 113.607C448.485 112.065 454.848 112.621 466.562 121.411C471.242 124.957 474.491 127.882 478.848 132.03C480.379 133.508 487.697 137.037 488.046 139.186C487.983 138.819 481.775 143.476 481.076 145.242C479.837 148.358 477.986 152.315 476.079 154.875C476.108 154.811 468.056 159.468 471.974 159.77C466.848 164.206 470.794 169.214 471.047 173.14C471.275 176.352 465.957 181.947 463.185 179.434C460.577 177.113 458.538 172.804 454.144 173.521C451.822 173.902 447.78 176.062 445.297 174.077C442.368 171.692 449.561 168.084 444.664 165.54C436.543 161.343 443.195 147.67 436.896 142.045C432.823 138.404 438.933 133.555 437.022 129.567C436.194 127.881 434.732 120.41 433.203 119.44C436.034 121.254 433.966 117.008 433.203 119.44Z" fill="#7F0098"/>
<path d="M433.203 119.44C433.711 117.852 436.645 115.23 434.415 113.607C448.485 112.065 454.848 112.621 466.562 121.411C471.242 124.957 474.491 127.882 478.848 132.03C480.379 133.508 487.697 137.037 488.046 139.186C487.983 138.819 481.775 143.476 481.076 145.242C479.837 148.358 477.986 152.315 476.079 154.875C476.108 154.811 468.056 159.468 471.974 159.77C466.848 164.206 470.794 169.214 471.047 173.14C471.275 176.352 465.957 181.947 463.185 179.434C460.577 177.113 458.538 172.804 454.144 173.521C451.822 173.902 447.78 176.062 445.297 174.077C442.368 171.692 449.561 168.084 444.664 165.54C436.543 161.343 443.195 147.67 436.896 142.045C432.823 138.404 438.933 133.555 437.022 129.567C436.194 127.881 434.732 120.41 433.203 119.44ZM433.203 119.44C433.966 117.008 436.034 121.254 433.203 119.44Z" stroke="#FFBF00" stroke-width="2" stroke-linecap="round" stroke-linejoin="round"/>
<path d="M456.098 146.241C455.45 146.241 454.846 146.137 454.286 145.929C453.734 145.713 453.254 145.409 452.846 145.017C452.438 144.625 452.118 144.165 451.886 143.637C451.662 143.109 451.55 142.529 451.55 141.897C451.55 141.265 451.662 140.685 451.886 140.157C452.118 139.629 452.438 139.169 452.846 138.777C453.262 138.385 453.746 138.085 454.298 137.877C454.85 137.661 455.454 137.553 456.11 137.553C456.838 137.553 457.494 137.681 458.078 137.937C458.67 138.185 459.166 138.553 459.566 139.041L458.318 140.193C458.03 139.865 457.71 139.621 457.358 139.461C457.006 139.293 456.622 139.209 456.206 139.209C455.814 139.209 455.454 139.273 455.126 139.401C454.798 139.529 454.514 139.713 454.274 139.953C454.034 140.193 453.846 140.477 453.71 140.805C453.582 141.133 453.518 141.497 453.518 141.897C453.518 142.297 453.582 142.661 453.71 142.989C453.846 143.317 454.034 143.601 454.274 143.841C454.514 144.081 454.798 144.265 455.126 144.393C455.454 144.521 455.814 144.585 456.206 144.585C456.622 144.585 457.006 144.505 457.358 144.345C457.71 144.177 458.03 143.925 458.318 143.589L459.566 144.741C459.166 145.229 458.67 145.601 458.078 145.857C457.494 146.113 456.834 146.241 456.098 146.241ZM462.667 141.081H466.711V142.593H462.667V141.081ZM462.811 144.537H467.383V146.097H460.879V137.697H467.227V139.257H462.811V144.537Z" fill="#FFFBC5"/>
<path d="M373.235 213.551C376.1 207.574 364.512 189.404 364.512 189.404C364.512 189.404 419.548 112.939 427.604 111.81C427.951 111.761 434.859 113.862 435.115 114.386C435.624 115.388 434.161 120.473 434.319 122.033C434.638 125.084 437.665 129.679 437.025 132.114C435.688 137.611 434.859 139.234 438.616 143.607C441.863 147.374 438.993 155.402 441.572 160.172C439.506 165.082 447.114 164.416 446.155 169.009C445.394 172.681 439.851 177.896 444.788 180.98C445.107 186.369 439.343 186.765 436.897 190.056C433.839 193.347 430.464 195.875 427.6 199.213C426.961 199.992 417.348 203.968 415.98 203.952C416.331 203.602 395.45 196.465 402.072 206.684C404.934 211.105 400.323 213.139 398.379 216.874C397.644 219.387 391.597 217.987 389.272 220.595C381.829 228.956 380.938 208.036 373.235 213.551Z" fill="#7F0098" stroke="#FFBF00" stroke-width="2" stroke-linecap="round" stroke-linejoin="round"/>
<path d="M414.344 179.843V171.443H417.98C418.732 171.443 419.38 171.567 419.924 171.815C420.468 172.055 420.888 172.403 421.184 172.859C421.48 173.315 421.628 173.859 421.628 174.491C421.628 175.115 421.48 175.655 421.184 176.111C420.888 176.567 420.468 176.919 419.924 177.167C419.38 177.407 418.732 177.527 417.98 177.527H415.424L416.288 176.651V179.843H414.344ZM416.288 176.867L415.424 175.943H417.872C418.472 175.943 418.92 175.815 419.216 175.559C419.512 175.303 419.66 174.947 419.66 174.491C419.66 174.027 419.512 173.667 419.216 173.411C418.92 173.155 418.472 173.027 417.872 173.027H415.424L416.288 172.103V176.867ZM423.016 179.843V171.443H424.96V179.843H423.016Z" fill="#FFFBC5"/>
<path d="M336.118 146.626C340.893 143.461 372.374 89.7603 372.596 88.1235C374.031 88.5843 379.667 96.7545 381.384 93.9568C381.957 93.9719 381.003 96.4527 380.749 96.7383C380.686 96.5816 383.293 94.0845 383.677 93.9104C384.283 93.6399 385.941 96.1195 387.688 93.0676C394.245 94.896 389.215 109.68 398.289 106.643C396.956 107.089 399.976 107.502 399.274 108.854C405.196 101.208 409.139 108.823 417.099 110.585C419.453 111.126 424.355 111.253 426.585 110.825C431.011 109.87 424.166 118.774 424.166 118.82C422.575 122.287 418.307 120.809 416.242 125.418C415.447 127.216 412.167 130.441 412.706 132.555C413.28 134.622 415.125 135.878 413.025 137.928C413.725 141.171 416.588 146.181 412.577 148.515C407.23 153.603 415.255 157.245 414.107 161.979C413.061 166.305 406.85 168.625 403.476 165.206C397.843 165.079 395.489 169.642 391.382 172.694C388.197 175.063 381.162 175.588 379.379 179.244C377.15 183.805 375.08 189.416 373.172 194.091C371.197 198.971 380.591 215.871 368.142 212.213C367.059 211.897 364.195 206.728 364.195 205.552C364.101 201.212 361.013 200.705 358.592 196.873C359.006 193.361 361.458 188.829 364.131 187.525C368.015 185.633 366.361 179.83 361.265 182.342C357.192 184.346 355.792 179.099 353.178 176.204C353.815 176.889 349.617 170.753 349.522 171.913C349.743 169.719 352.865 165.141 353.405 162.106C354.073 158.322 354.009 154.254 352.799 150.375C352.067 147.974 347.388 145.127 345.224 145.224C343.726 145.558 342.385 145.224 341.241 144.205C338.603 144.127 338.603 146.877 336.118 146.626Z" fill="#7F0098" stroke="#FFBF00" stroke-width="2" stroke-linecap="round" stroke-linejoin="round"/>
<path d="M372.495 143.391V134.991H374.103L377.679 140.919H376.827L380.343 134.991H381.939L381.963 143.391H380.139L380.127 137.787H380.463L377.655 142.503H376.779L373.911 137.787H374.319V143.391H372.495ZM382.851 143.391L386.595 134.991H388.515L392.271 143.391H390.231L387.159 135.975H387.927L384.843 143.391H382.851ZM384.723 141.591L385.239 140.115H389.559L390.087 141.591H384.723Z" fill="#FFFBC5"/>
<path d="M262.146 43.6123C265.951 44.9647 266.778 42.0858 269.784 41.5924C273.987 40.8924 276.389 44.7558 280.287 43.9919C285 43.0864 288.531 34.6759 288.788 30.5281C294.008 26.4256 295.183 17.4591 299.736 13.4866C306.773 18.4296 306.837 31.8144 308.556 39.5887C308.365 39.6851 316.192 48.8734 317.789 49.6674C321.736 51.591 321.701 56.8683 317.879 60.5099C313.49 64.674 309.222 100.299 309.222 100.299H255.191C255.191 100.299 256.275 41.8304 255.191 40.5731C258.213 40.5581 259.98 42.8322 262.146 43.6123Z" fill="#FFFBC5" stroke="#FFBF00" stroke-width="2" stroke-linecap="round" stroke-linejoin="round"/>
<path d="M286.113 57.3779L289.857 48.9779H291.777L295.533 57.3779H293.493L290.421 49.9619H291.189L288.105 57.3779H286.113ZM287.985 55.5779L288.501 54.1019H292.821L293.349 55.5779H287.985ZM296.404 57.3779V48.9779H300.04C300.792 48.9779 301.44 49.1019 301.984 49.3499C302.528 49.5899 302.948 49.9379 303.244 50.3939C303.54 50.8499 303.688 51.3939 303.688 52.0259C303.688 52.6499 303.54 53.1899 303.244 53.6459C302.948 54.1019 302.528 54.4539 301.984 54.7019C301.44 54.9419 300.792 55.0619 300.04 55.0619H297.484L298.348 54.1859V57.3779H296.404ZM298.348 54.4019L297.484 53.4779H299.932C300.532 53.4779 300.98 53.3499 301.276 53.0939C301.572 52.8379 301.72 52.4819 301.72 52.0259C301.72 51.5619 301.572 51.2019 301.276 50.9459C300.98 50.6899 300.532 50.5619 299.932 50.5619H297.484L298.348 49.6379V54.4019Z" fill="#FFFBC5"/>
<path d="M201.92 56.9971C204.545 60.0502 208.462 51.7988 211.103 52.5626C214.81 53.6283 212.82 51.2764 216.944 50.5288C219.188 51.4644 220.542 50.8457 221.034 48.6354C221.656 47.1727 222.722 46.6317 224.201 47.0287C226.256 45.0738 239.958 51.2114 241.262 47.4745C241.993 45.3606 236.28 40.8471 240.911 39.3519C242.821 38.7332 247.898 40.2899 251.081 39.273C255.713 37.7778 256.748 42.3887 256.174 46.3148C256.907 50.4788 271.451 53.0084 271.261 55.5669C275.433 53.8047 277.484 70.3831 279.519 72.338C279.934 77.2833 286.846 82.3041 287.736 86.9C288.466 90.8423 295.947 91.0977 297.281 87.0102C300.278 77.5689 308.55 75.376 312.942 67.6806C318.292 58.3495 317.272 72.0362 323.35 68.9193C325.802 69.3964 326.693 73.132 328.666 74.4032C332.362 76.7563 337.707 75.5339 340.953 77.9009C336.081 82.9878 350.469 82.2565 351.681 82.3993C357.123 83.0668 361.1 85.1656 365.46 86.6121C365.269 86.532 371.029 87.2157 371.478 88.0574C373.832 92.4303 365.778 110.362 364.06 113C362.757 114.988 360.653 118.787 359.729 120.933C358.68 123.285 354.192 129.423 354.319 131.647C352.124 132.775 351.706 137.26 348.493 136.671C344.895 140.184 338.978 142.474 336.557 147.068C338.948 147.974 346.233 148.276 342.73 152.027C341.776 153.045 341.459 158.45 340.853 159.959C340.185 161.566 335.665 165.507 333.754 166.158C328.981 167.814 330.574 170.959 328.79 175.045C327.706 177.429 328.156 179.097 330.831 180.082C330.735 183.373 329.683 186.554 328.059 189.366C324.525 195.455 317.589 200.764 316.345 208.254C312.555 212.21 215.155 206.838 214.693 205.184C213.039 199.366 216.445 177.317 211.429 172.819C211.208 170.402 176.687 165.507 175.733 163.438C174.768 161.313 201.682 66.2168 201.92 56.9971ZM371.326 88.3928C371.516 87.5199 372.025 89.6652 371.326 88.3928V88.3928Z" fill="#FFFBC5" stroke="#FFBF00" stroke-width="2" stroke-linecap="round" stroke-linejoin="round"/>
<path d="M271.227 138.527V130.127H274.863C275.615 130.127 276.263 130.251 276.807 130.499C277.351 130.739 277.771 131.087 278.067 131.543C278.363 131.999 278.511 132.543 278.511 133.175C278.511 133.799 278.363 134.339 278.067 134.795C277.771 135.251 277.351 135.603 276.807 135.851C276.263 136.091 275.615 136.211 274.863 136.211H272.307L273.171 135.335V138.527H271.227ZM273.171 135.551L272.307 134.627H274.755C275.355 134.627 275.803 134.499 276.099 134.243C276.395 133.987 276.543 133.631 276.543 133.175C276.543 132.711 276.395 132.351 276.099 132.095C275.803 131.839 275.355 131.711 274.755 131.711H272.307L273.171 130.787V135.551ZM278.373 138.527L282.117 130.127H284.037L287.793 138.527H285.753L282.681 131.111H283.449L280.365 138.527H278.373ZM280.245 136.727L280.761 135.251H285.081L285.609 136.727H280.245Z" fill="#FFFBC5"/>
<path d="M131.956 26.2201C130.827 23.0243 122.82 19.3838 123.822 15.7909C123.901 15.5216 139.197 22.8176 138.687 19.0506C139.149 20.5934 140.104 21.2435 141.521 21.0067C143.717 19.4964 149.829 25.887 151.07 23.1995C151.579 22.0863 149.144 18.8428 151.93 18.7325C153.123 19.241 153.713 18.9229 153.697 17.7783C154.667 15.7444 157.852 18.0325 159.267 17.8746C160.159 16.6488 171.616 14.3619 169.77 11.9612C171.363 12.4696 175.086 12.8992 175.151 10.1653C180.435 7.78088 176.488 5.04703 178.224 2.78914C180.755 -0.48451 189.604 3.72829 186.74 9.45021C184.448 14.0124 195.016 14.125 193.393 20.3229C192.867 22.2801 190.511 23.4851 189.414 24.9327C188.044 26.7274 187.28 35.6626 187.838 38.3176C189.048 43.993 191.593 48.4113 194.967 52.4337C196.957 54.7868 201.492 55.0584 201.62 57.5056C201.811 60.9243 202.974 64.6763 202.002 68.0602C200.204 74.3567 159.444 103.433 159.444 103.433C159.444 103.433 144.897 42.2134 135.81 40.673C134.375 40.5104 130.031 28.0485 131.956 26.2201Z" fill="#FFFBC5" stroke="#FFBF00" stroke-width="2" stroke-linecap="round" stroke-linejoin="round"/>
<path d="M159.992 45.5095V37.1095H163.628C164.38 37.1095 165.028 37.2335 165.572 37.4815C166.116 37.7215 166.536 38.0695 166.832 38.5255C167.128 38.9815 167.276 39.5255 167.276 40.1575C167.276 40.7815 167.128 41.3215 166.832 41.7775C166.536 42.2255 166.116 42.5695 165.572 42.8095C165.028 43.0495 164.38 43.1695 163.628 43.1695H161.072L161.936 42.3175V45.5095H159.992ZM165.332 45.5095L163.232 42.4615H165.308L167.432 45.5095H165.332ZM161.936 42.5335L161.072 41.6215H163.52C164.12 41.6215 164.568 41.4935 164.864 41.2375C165.16 40.9735 165.308 40.6135 165.308 40.1575C165.308 39.6935 165.16 39.3335 164.864 39.0775C164.568 38.8215 164.12 38.6935 163.52 38.6935H161.072L161.936 37.7695V42.5335ZM168.816 45.5095V37.1095H172.452C173.204 37.1095 173.852 37.2335 174.396 37.4815C174.94 37.7215 175.36 38.0695 175.656 38.5255C175.952 38.9815 176.1 39.5255 176.1 40.1575C176.1 40.7815 175.952 41.3215 175.656 41.7775C175.36 42.2255 174.94 42.5695 174.396 42.8095C173.852 43.0495 173.204 43.1695 172.452 43.1695H169.896L170.76 42.3175V45.5095H168.816ZM174.156 45.5095L172.056 42.4615H174.132L176.256 45.5095H174.156ZM170.76 42.5335L169.896 41.6215H172.344C172.944 41.6215 173.392 41.4935 173.688 41.2375C173.984 40.9735 174.132 40.6135 174.132 40.1575C174.132 39.6935 173.984 39.3335 173.688 39.0775C173.392 38.8215 172.944 38.6935 172.344 38.6935H169.896L170.76 37.7695V42.5335Z" fill="#FFFBC5"/>
<path d="M12.1289 156.592C13.4655 150.82 17.0776 144.525 21.6766 141.378C26.802 137.864 30.5745 134.75 36.9075 134.318C39.4237 134.145 48.7807 127.643 50.8344 130.854C55.1474 137.546 56.6432 126.513 57.3126 122.699C59.3186 111.477 61.6093 100.269 62.961 88.9338C62.5635 87.3596 60.6215 81.7004 59.6684 80.6185C57.9797 78.7425 54.686 78.1551 54.127 75.3435C53.8108 73.6579 53.4599 66.9179 55.4159 65.9161C59.4767 63.8636 63.0249 65.8673 66.7324 64.8829C63.756 60.1779 67.0834 59.8598 60.303 58.9218C56.3073 58.3809 55.6878 56.0591 57.1208 51.5294C58.3447 47.6985 75.5979 50.3685 79.3053 49.9088C77.5225 50.1155 78.0153 47.031 79.2565 46.872C80.7372 46.6804 81.0882 49.9878 82.935 48.0305C84.4296 46.4111 86.6413 44.6466 88.2812 43.6761C91.1147 41.9929 93.5495 53.215 93.4705 55.091C93.4229 55.9964 93.3113 57.9212 94.8384 57.6983C98.3391 57.1573 99.7419 61.0056 103.291 62.6099C107.682 64.5985 107.858 61.0369 111.454 60.2092C116.452 59.0658 112.28 64.1515 114.223 64.6124C116.07 65.0593 118.647 58.844 119.826 58.144C120.907 57.5253 124.155 57.2699 125.458 56.2843C128.96 53.6782 127.705 54.3271 129.517 54.8843C133.559 56.0928 132.112 45.1713 137.061 46.6816C139.178 46.1406 141.295 43.9652 143.491 43.8688C144.701 43.8189 150.541 46.5237 151.097 47.5221C151.782 49.2228 151.464 50.7667 150.175 52.1493C152.006 53.8035 153.311 55.8049 154.075 58.1417C155.125 61.4641 152.58 66.0438 154.758 68.9366C154.502 76.6622 160.346 78.0924 154.298 83.5601C154.521 83.3535 162.097 91.764 162.574 92.8923C163.702 92.067 167.299 93.8779 167.666 94.6743C165.739 90.4615 168.301 74.835 175.369 82.0034C183.74 90.5091 181.751 77.8069 186.001 71.9886C189.295 67.4902 202.966 68.3481 202.361 75.7568C201.104 79.5563 209.65 92.3061 213.597 89.0325C216.223 95.6924 221.603 94.0068 225.692 98.3786C231.612 104.722 230.771 102.321 238.84 101.685C236.215 105.866 234.859 107.266 232.713 111.97C229.053 119.936 225.565 127.962 222.016 135.975C219.183 142.365 204.765 163.221 209.109 168.992C214.695 176.416 219.963 204.031 222.27 203.741C215.109 203.44 166.392 191.407 162.239 194.333C160.55 195.509 99.9139 206.525 97.271 206.892C89.8688 207.908 76.2464 198.45 69.7042 195.125C59.708 190.04 50.3997 184.7 39.3842 182.298C27.4342 179.675 15.4017 176.734 4.6593 170.676C5.20555 167.45 14.8659 166.305 12.1289 156.592Z" fill="#FFFBC5" stroke="#FFBF00" stroke-width="2" stroke-linecap="round" stroke-linejoin="round"/>
<path d="M115.545 134.517L119.289 126.117H121.209L124.965 134.517H122.925L119.853 127.101H120.621L117.537 134.517H115.545ZM117.417 132.717L117.933 131.241H122.253L122.781 132.717H117.417ZM125.837 134.517V126.117H127.445L131.021 132.045H130.169L133.685 126.117H135.281L135.305 134.517H133.481L133.469 128.913H133.805L130.997 133.629H130.121L127.253 128.913H127.661V134.517H125.837Z" fill="#FFFBC5"/>
<path d="M4.66512 170.676C19.2591 179.434 36.6541 180.389 52.4115 186C67.2903 195.362 84.1146 200.911 99.6163 209.069C96.3226 210.468 90.7986 214.156 88.0139 216.492C84.6086 219.337 86.503 218.861 82.6351 218.764C79.2298 218.684 78.0362 224.122 74.2636 224.869C70.7781 225.569 65.941 222.596 61.485 222.899C59.271 223.057 47.5744 222.834 46.7945 223.599C47.1583 219.371 46.3471 215.126 46.6027 210.898C46.7143 209.228 48.9249 203.314 48.0497 202.249C40.1234 205.904 38.3579 210.595 28.6022 210.39C26.1197 210.341 25.6246 207.497 25.0214 205.745C23.5721 201.598 16.6325 201.773 12.7495 201.359C20.0704 197.401 9.13851 187.545 6.68739 183.158C6.08303 182.092 2.51733 177.754 2.46968 176.243C2.3244 172.567 8.10065 174.65 4.66512 170.676Z" fill="#FFFBC5" stroke="#FFBF00" stroke-width="2" stroke-linecap="round" stroke-linejoin="round"/>
<path d="M55.8125 210.991L59.5565 202.591H61.4765L65.2325 210.991H63.1925L60.1205 203.575H60.8885L57.8045 210.991H55.8125ZM57.6845 209.191L58.2005 207.715H62.5205L63.0485 209.191H57.6845ZM70.0068 211.135C69.3588 211.135 68.7548 211.031 68.1948 210.823C67.6428 210.607 67.1628 210.303 66.7548 209.911C66.3468 209.519 66.0268 209.059 65.7948 208.531C65.5708 208.003 65.4588 207.423 65.4588 206.791C65.4588 206.159 65.5708 205.579 65.7948 205.051C66.0268 204.523 66.3468 204.063 66.7548 203.671C67.1708 203.279 67.6548 202.979 68.2068 202.771C68.7588 202.555 69.3628 202.447 70.0188 202.447C70.7468 202.447 71.4028 202.575 71.9868 202.831C72.5788 203.079 73.0748 203.447 73.4748 203.935L72.2268 205.087C71.9388 204.759 71.6188 204.515 71.2668 204.355C70.9148 204.187 70.5308 204.103 70.1148 204.103C69.7228 204.103 69.3628 204.167 69.0348 204.295C68.7068 204.423 68.4228 204.607 68.1828 204.847C67.9428 205.087 67.7548 205.371 67.6188 205.699C67.4908 206.027 67.4268 206.391 67.4268 206.791C67.4268 207.191 67.4908 207.555 67.6188 207.883C67.7548 208.211 67.9428 208.495 68.1828 208.735C68.4228 208.975 68.7068 209.159 69.0348 209.287C69.3628 209.415 69.7228 209.479 70.1148 209.479C70.5308 209.479 70.9148 209.399 71.2668 209.239C71.6188 209.071 71.9388 208.819 72.2268 208.483L73.4748 209.635C73.0748 210.123 72.5788 210.495 71.9868 210.751C71.4028 211.007 70.7428 211.135 70.0068 211.135Z" fill="#FFFBC5"/>
<path d="M97.2756 207.461C98.3577 205.634 103.483 202.042 104.612 202.056C106.186 201.978 107.716 202.216 109.212 202.756C112.712 204.428 111.581 201.438 115.419 202.613C113.938 199.958 119.827 199.197 118.743 202.247C122.309 202.534 121.91 196.811 126.493 196.304C131.651 195.714 132.367 195.554 134.77 191.04C134.927 190.755 137.824 184.634 137.969 185.207C140.515 177.672 154.92 184.188 156.143 189.102C156.605 190.977 158.275 192.743 160.376 194.174C161.824 195.174 167.73 189.531 167.505 195.699C166.599 197.178 198.494 204.587 202.378 218.083C206.817 233.566 183.293 255.425 181.257 257.602C176.069 258.985 178.887 259.606 173.586 257.776C170.594 256.761 166.122 258.921 163.033 258.112C160.233 257.363 159.499 253.518 156.222 252.676C152.672 251.77 149.92 250.592 147.327 248.113C142.63 243.614 136.887 245.043 130.504 243.693C128.371 243.596 123.469 235.823 121.352 237.509C119.236 237 115.098 226.952 117.404 224.502C117.548 222.564 117.102 220.783 116.053 219.131C114.907 216.062 117.262 213.297 117.056 210.069C116.609 203.01 115.861 207.764 113.125 207.86C110.055 207.988 100.317 209.131 97.2756 207.461Z" fill="#FFFBC5" stroke="#FFBF00" stroke-width="2" stroke-linecap="round" stroke-linejoin="round"/>
<path d="M138.731 223.045V214.645H142.367C143.119 214.645 143.767 214.769 144.311 215.017C144.855 215.257 145.275 215.605 145.571 216.061C145.867 216.517 146.015 217.061 146.015 217.693C146.015 218.317 145.867 218.857 145.571 219.313C145.275 219.761 144.855 220.105 144.311 220.345C143.767 220.585 143.119 220.705 142.367 220.705H139.811L140.675 219.853V223.045H138.731ZM144.071 223.045L141.971 219.997H144.047L146.171 223.045H144.071ZM140.675 220.069L139.811 219.157H142.259C142.859 219.157 143.307 219.029 143.603 218.773C143.899 218.509 144.047 218.149 144.047 217.693C144.047 217.229 143.899 216.869 143.603 216.613C143.307 216.357 142.859 216.229 142.259 216.229H139.811L140.675 215.305V220.069ZM151.635 223.189C150.971 223.189 150.355 223.081 149.787 222.865C149.227 222.649 148.739 222.345 148.323 221.953C147.915 221.561 147.595 221.101 147.363 220.573C147.139 220.045 147.027 219.469 147.027 218.845C147.027 218.221 147.139 217.645 147.363 217.117C147.595 216.589 147.919 216.129 148.335 215.737C148.751 215.345 149.239 215.041 149.799 214.825C150.359 214.609 150.967 214.501 151.623 214.501C152.287 214.501 152.895 214.609 153.447 214.825C154.007 215.041 154.491 215.345 154.899 215.737C155.315 216.129 155.639 216.589 155.871 217.117C156.103 217.637 156.219 218.213 156.219 218.845C156.219 219.469 156.103 220.049 155.871 220.585C155.639 221.113 155.315 221.573 154.899 221.965C154.491 222.349 154.007 222.649 153.447 222.865C152.895 223.081 152.291 223.189 151.635 223.189ZM151.623 221.533C151.999 221.533 152.343 221.469 152.655 221.341C152.975 221.213 153.255 221.029 153.495 220.789C153.735 220.549 153.919 220.265 154.047 219.937C154.183 219.609 154.251 219.245 154.251 218.845C154.251 218.445 154.183 218.081 154.047 217.753C153.919 217.425 153.735 217.141 153.495 216.901C153.263 216.661 152.987 216.477 152.667 216.349C152.347 216.221 151.999 216.157 151.623 216.157C151.247 216.157 150.899 216.221 150.579 216.349C150.267 216.477 149.991 216.661 149.751 216.901C149.511 217.141 149.323 217.425 149.187 217.753C149.059 218.081 148.995 218.445 148.995 218.845C148.995 219.237 149.059 219.601 149.187 219.937C149.323 220.265 149.507 220.549 149.739 220.789C149.979 221.029 150.259 221.213 150.579 221.341C150.899 221.469 151.247 221.533 151.623 221.533Z" fill="#FFFBC5"/>
<path d="M165.727 200.182C170.376 199.815 163.533 192.692 171.538 193.521C180.736 194.459 190.477 193.902 199.756 193.774C201.649 193.759 210.102 195.269 208.35 191.646C206.965 188.799 210.467 184.188 208.844 180.357C211.2 179.354 210.342 175.937 211.9 174.428C213.237 173.125 216.753 182.838 217.055 183.505C218.33 186.35 217.518 189.864 219.301 192.39C220.94 194.697 224.617 194.87 226.145 197.335C229.79 203.297 238.749 202.137 246.054 202.741C269.483 204.663 292.957 205.839 316.352 208.257C312.308 217.269 311.704 225.568 310.399 234.437C309.891 237.887 312.564 242.752 310.334 246.121C312.595 247.615 311.899 249.317 311.989 251.24C313.327 280.411 288.246 321.108 272.999 319.231C260.314 317.641 220.35 319.298 218.458 315.288C217.104 310.71 211.327 312.203 208.701 307.623C206.027 302.92 209.496 300.311 209.558 295.733C201.426 296.433 193.182 295.288 185.033 295.357C185.954 289.534 180.703 284.575 181.629 279.327C182.232 275.815 184.797 275.942 182.712 271.445C181.31 268.439 182.408 266.514 181.899 264.036C181.563 262.428 180.688 261.858 179.431 261.222C176.024 259.489 180.879 258.343 181.82 256.992C183.826 254.13 185.654 243.765 189.427 243.512C190.844 241.191 187.357 239.283 187.724 237.057C183.189 232.892 188.312 231.667 188.153 227.789C187.978 223.578 176.933 223.21 173.909 223.434C171.793 223.594 169.133 224.087 167.066 223.325C167.639 219.238 166.46 216.297 166.444 212.626C166.428 209.972 167.941 206.616 167.415 203.977C167.289 203.266 165.378 201.055 165.727 200.182Z" fill="#7F0098" stroke="#FFBF00" stroke-width="2" stroke-linecap="round" stroke-linejoin="round"/>
<path d="M235.945 249.859V241.459H237.553L241.129 247.387H240.277L243.793 241.459H245.389L245.413 249.859H243.589L243.577 244.255H243.913L241.105 248.971H240.229L237.361 244.255H237.769V249.859H235.945ZM249.146 249.859V243.043H246.458V241.459H253.778V243.043H251.09V249.859H249.146Z" fill="#FFFBC5"/>
<path d="M213.333 340.153C215.815 334.971 217.025 329.248 219.507 324.353C221.496 320.471 214.78 315.546 216.69 312.969C216.722 312.939 219.873 317.196 221.243 317.293C224.967 315.512 226.83 314.656 229.36 311.224C232.399 307.056 241.949 307.725 245.69 310.87C247.153 312.078 249.256 313.316 251.115 313.858C254.792 314.942 257.96 310.36 261.063 312.845C265.391 316.306 266.439 310.683 270.198 308.771C272.459 307.596 268.143 318.598 267.59 317.804C270.453 318.917 272.57 318.85 275.516 318.917C279.589 319.011 277.614 320.316 278.348 322.793C278.889 324.609 311.992 315.832 312.535 323.464C312.886 327.918 311.388 395.221 311.388 395.221C311.388 395.221 265.443 401.644 263.038 401.357C258.518 400.786 258.869 397.607 253.667 400.274C251.31 400.656 246.679 401.673 247.65 397.478C245.31 392.423 247.521 380.5 242.014 377.641C240.612 376.876 233.772 374.901 233.293 375.383C231.318 377.446 228.947 377.196 226.179 376.684C222.804 376.716 219.637 374.811 216.599 375.288C211.743 376.049 215.898 371.821 214.687 371.184C215.77 367.879 216.327 359.678 215.213 357.421C215.022 357.037 211.122 349.025 212.253 348.008C216.945 343.812 212.329 345.817 213.333 340.153Z" fill="#7F0098" stroke="#FFBF00" stroke-width="2" stroke-linecap="round" stroke-linejoin="round"/>
<path d="M250.75 352.371V343.971H252.358L255.934 349.899H255.082L258.598 343.971H260.194L260.218 352.371H258.394L258.382 346.767H258.718L255.91 351.483H255.034L252.166 346.767H252.574V352.371H250.75ZM264.971 352.515C264.299 352.515 263.655 352.427 263.039 352.251C262.423 352.067 261.927 351.831 261.551 351.543L262.211 350.079C262.571 350.335 262.995 350.547 263.483 350.715C263.979 350.875 264.479 350.955 264.983 350.955C265.367 350.955 265.675 350.919 265.907 350.847C266.147 350.767 266.323 350.659 266.435 350.523C266.547 350.387 266.603 350.231 266.603 350.055C266.603 349.831 266.515 349.655 266.339 349.527C266.163 349.391 265.931 349.283 265.643 349.203C265.355 349.115 265.035 349.035 264.683 348.963C264.339 348.883 263.991 348.787 263.639 348.675C263.295 348.563 262.979 348.419 262.691 348.243C262.403 348.067 262.167 347.835 261.983 347.547C261.807 347.259 261.719 346.891 261.719 346.443C261.719 345.963 261.847 345.527 262.103 345.135C262.367 344.735 262.759 344.419 263.279 344.187C263.807 343.947 264.467 343.827 265.259 343.827C265.787 343.827 266.307 343.891 266.819 344.019C267.331 344.139 267.783 344.323 268.175 344.571L267.575 346.047C267.183 345.823 266.791 345.659 266.399 345.555C266.007 345.443 265.623 345.387 265.247 345.387C264.871 345.387 264.563 345.431 264.323 345.519C264.083 345.607 263.911 345.723 263.807 345.867C263.703 346.003 263.651 346.163 263.651 346.347C263.651 346.563 263.739 346.739 263.915 346.875C264.091 347.003 264.323 347.107 264.611 347.187C264.899 347.267 265.215 347.347 265.559 347.427C265.911 347.507 266.259 347.599 266.603 347.703C266.955 347.807 267.275 347.947 267.563 348.123C267.851 348.299 268.083 348.531 268.259 348.819C268.443 349.107 268.535 349.471 268.535 349.911C268.535 350.383 268.403 350.815 268.139 351.207C267.875 351.599 267.479 351.915 266.951 352.155C266.431 352.395 265.771 352.515 264.971 352.515Z" fill="#FFFBC5"/>
<path d="M276.755 312.272C277.485 308.901 278.888 303.686 282.228 302.096C283.408 300.188 284.267 296.121 284.872 295.611C287.671 293.003 289.392 291.22 292.578 290.206C296.905 288.808 296.457 284.005 298.21 280.728C299.958 277.425 303.714 279.393 305.116 276.802C306.835 273.512 305.977 269.65 307.66 266.5C311.033 260.08 309.824 246.344 317.72 242.625C312.051 251.495 322.018 248.395 326.089 253.594C328.731 255.611 328.604 251.479 329.239 250.047C331.119 245.946 332.584 252.656 334.492 248.268C334.972 248.697 339.299 254.96 338.475 254.77C338.441 253.689 338.854 253.135 339.68 253.1C339.806 253.72 339.999 254.276 340.38 254.786C339.68 254.483 351.65 254.676 350.631 256.567C351.049 255.804 349.931 252.957 350.888 252.576C352.095 252.099 355.503 254.164 358.269 253.084C359.483 252.623 367.438 249.826 367.184 248.809C368.076 249.859 368.651 251.908 370.497 250.302C367.438 252.941 367.503 255.486 371.959 254.737C369.796 256.407 368.651 259.777 369.19 262.337C369.605 264.245 373.551 269.271 373.233 270.175C371.164 270.54 373.932 276.487 370.53 277.23C366.833 278.044 365.913 270.811 365.533 278.029C365.342 279.747 364.258 279.968 362.316 278.698C358.494 279.077 361.678 281.24 361.013 283.211C359.865 286.58 364.258 290.684 358.211 291.063C354.043 291.317 355.094 292.62 355.094 287.884C355.061 282.575 341.084 283.655 343.218 288.488C337.522 295.866 357.223 288.11 354.454 295.866C352.929 300.221 372.852 328.615 366.549 325.37C364.289 324.226 307.503 337.294 308.458 339.423C302.633 336.943 294.74 330.204 288.246 329.948C287.737 327.407 284.041 328.457 282.325 328.168C277.997 327.467 283.533 324.417 282.58 323.398C280.384 321.174 277.487 325.437 278.41 319.902C278.887 317.041 275.927 315.197 276.755 312.272Z" fill="#7F0098" stroke="#FFBF00" stroke-width="2" stroke-linecap="round" stroke-linejoin="round"/>
<path d="M316.987 291.558C316.323 291.558 315.711 291.454 315.151 291.246C314.599 291.03 314.115 290.726 313.699 290.334C313.291 289.942 312.971 289.482 312.739 288.954C312.515 288.426 312.403 287.846 312.403 287.214C312.403 286.582 312.515 286.002 312.739 285.474C312.971 284.946 313.295 284.486 313.711 284.094C314.127 283.702 314.615 283.402 315.175 283.194C315.735 282.978 316.351 282.87 317.023 282.87C317.767 282.87 318.435 282.994 319.027 283.242C319.627 283.49 320.131 283.85 320.539 284.322L319.291 285.474C318.987 285.154 318.655 284.918 318.295 284.766C317.935 284.606 317.543 284.526 317.119 284.526C316.711 284.526 316.339 284.59 316.003 284.718C315.667 284.846 315.375 285.03 315.127 285.27C314.887 285.51 314.699 285.794 314.563 286.122C314.435 286.45 314.371 286.814 314.371 287.214C314.371 287.606 314.435 287.966 314.563 288.294C314.699 288.622 314.887 288.91 315.127 289.158C315.375 289.398 315.663 289.582 315.991 289.71C316.327 289.838 316.695 289.902 317.095 289.902C317.479 289.902 317.851 289.842 318.211 289.722C318.579 289.594 318.935 289.382 319.279 289.086L320.383 290.49C319.927 290.834 319.395 291.098 318.787 291.282C318.187 291.466 317.587 291.558 316.987 291.558ZM318.607 290.238V287.082H320.383V290.49L318.607 290.238ZM326.268 291.558C325.604 291.558 324.988 291.45 324.42 291.234C323.86 291.018 323.372 290.714 322.956 290.322C322.548 289.93 322.228 289.47 321.996 288.942C321.772 288.414 321.66 287.838 321.66 287.214C321.66 286.59 321.772 286.014 321.996 285.486C322.228 284.958 322.552 284.498 322.968 284.106C323.384 283.714 323.872 283.41 324.432 283.194C324.992 282.978 325.6 282.87 326.256 282.87C326.92 282.87 327.528 282.978 328.08 283.194C328.64 283.41 329.124 283.714 329.532 284.106C329.948 284.498 330.272 284.958 330.504 285.486C330.736 286.006 330.852 286.582 330.852 287.214C330.852 287.838 330.736 288.418 330.504 288.954C330.272 289.482 329.948 289.942 329.532 290.334C329.124 290.718 328.64 291.018 328.08 291.234C327.528 291.45 326.924 291.558 326.268 291.558ZM326.256 289.902C326.632 289.902 326.976 289.838 327.288 289.71C327.608 289.582 327.888 289.398 328.128 289.158C328.368 288.918 328.552 288.634 328.68 288.306C328.816 287.978 328.884 287.614 328.884 287.214C328.884 286.814 328.816 286.45 328.68 286.122C328.552 285.794 328.368 285.51 328.128 285.27C327.896 285.03 327.62 284.846 327.3 284.718C326.98 284.59 326.632 284.526 326.256 284.526C325.88 284.526 325.532 284.59 325.212 284.718C324.9 284.846 324.624 285.03 324.384 285.27C324.144 285.51 323.956 285.794 323.82 286.122C323.692 286.45 323.628 286.814 323.628 287.214C323.628 287.606 323.692 287.97 323.82 288.306C323.956 288.634 324.14 288.918 324.372 289.158C324.612 289.398 324.892 289.582 325.212 289.71C325.532 289.838 325.88 289.902 326.256 289.902Z" fill="#FFFBC5"/>
<path d="M258.691 420.436C260.791 417.954 260.886 414.77 261.508 411.754C261.858 410.067 262.049 402.63 263.099 401.613C265.772 400.819 265.772 397.765 266.267 395.572C266.983 392.393 269.546 392.138 270.898 389.052C275.975 377.548 316.163 377.99 324.913 378.341C330.327 378.565 343.247 418.464 345.735 417.571C343.727 420.114 339.048 427.937 335.961 428.001C331.25 428.067 319.44 445.042 319.44 445.042C319.44 445.042 276.056 431.054 272.618 431.942C268.114 430.26 269.482 424.407 265.582 422.404C263.849 421.515 259.008 425.203 258.691 420.436Z" fill="#FFFBC5" stroke="#FFBF00" stroke-width="2" stroke-linecap="round" stroke-linejoin="round"/>
<path d="M268.923 443.961C270.863 440.086 268.593 431.754 274.238 431.692C281.945 431.566 290.089 435.824 297.95 436.206C299.48 436.269 304.029 438.717 303.013 434.871C301.741 430.037 307.598 432.708 309.603 431.18C312.246 429.179 319.118 426.414 322.749 429.593C324.403 431.693 346.052 423.33 338.188 434.174C336.598 435.793 339.017 446.699 338.73 446.635C334.721 451.787 340.736 460.178 332.807 464.436C329.435 466.219 324.341 473.466 321.603 476.038C321.288 476.358 271.834 442.753 268.923 443.961Z" fill="#FFFBC5" stroke="#FFBF00" stroke-width="2" stroke-linecap="round" stroke-linejoin="round"/>
<path d="M222.675 482.179C223.279 479.064 231.252 472.418 233.689 470.163C234.119 469.747 243.683 458.462 244.351 460.494C242.839 455.979 247.584 458.65 248.904 454.9C249.206 454.295 257.086 449.304 257.166 449.334C258.835 449.112 264.977 445.044 265.791 445.553C267.19 443.199 276.166 443.836 275.848 444.596C277.202 444.155 278.502 443.578 279.713 442.879C279.97 441.926 305.815 451.624 307.977 456.265C310.91 462.464 322.176 459.541 323.26 462.723C323.384 463.043 316.509 473.565 318.739 473.372C317.595 473.465 322.463 470.034 323.195 473.847C319.949 478.048 317.849 482.941 315.558 487.712C311.263 496.551 305.247 502.531 297.095 507.935C288.502 513.625 288.566 521.796 281.688 528.474C272.284 537.693 269.881 527.807 276.946 521.796C281.369 518.046 250.765 498.874 247.219 495.408C244.989 493.246 244.448 495.726 242.315 496.743C239.355 498.141 240.087 493.467 238.145 491.782C235.472 489.462 232.575 485.422 229.153 484.028C225.111 482.441 222.627 490 218.633 484.981C220.271 484.47 221.624 483.516 222.675 482.179Z" fill="#FFFBC5" stroke="#FFBF00" stroke-width="2" stroke-linecap="round" stroke-linejoin="round"/>
<path d="M278.536 381.965C282.325 376.908 289.647 376.116 291.937 369.437C293.528 364.861 296.457 359.201 299.068 354.304C300.882 350.871 308.074 346.037 311.291 344.262C311.736 344.035 349.614 337.137 360.376 342.288C383.928 353.576 390.614 381.617 392.749 380.949C397.872 379.295 398.955 385.335 395.196 386.162C393.158 386.641 387.62 387.879 387.653 390.108C387.685 394.11 388.259 391.982 384.247 394.332C381.703 392.684 380.365 399.104 378.711 398.309C373.747 395.704 370.624 401.745 367.951 400.536C362.988 398.309 348.217 415.734 345.128 418.339C345.412 418.086 343.793 416.622 343.283 415.222C342.742 413.633 340.194 415.669 338.605 415.317C337.459 415.094 340.64 410.582 335.929 410.07C334.338 409.88 331.567 410.422 330.2 410.167C326.826 409.532 330.326 407.37 329.69 405.684C328.45 402.218 326.188 399.96 325.33 396.654C324.726 394.396 325.522 387.911 321.129 388.069C320.143 384.638 313.426 386.385 310.592 385.908C310.404 386.097 300.311 382.792 298.878 382.792C297 382.758 290.986 378.849 290.602 382.474C288.626 381.77 279.205 382.727 278.536 381.965Z" fill="#7F0098" stroke="#FFBF00" stroke-width="2" stroke-linecap="round" stroke-linejoin="round"/>
<path d="M331.666 376.424C330.994 376.424 330.35 376.336 329.734 376.16C329.118 375.976 328.622 375.74 328.246 375.452L328.906 373.988C329.266 374.244 329.69 374.456 330.178 374.624C330.674 374.784 331.174 374.864 331.678 374.864C332.062 374.864 332.37 374.828 332.602 374.756C332.842 374.676 333.018 374.568 333.13 374.432C333.242 374.296 333.298 374.14 333.298 373.964C333.298 373.74 333.21 373.564 333.034 373.436C332.858 373.3 332.626 373.192 332.338 373.112C332.05 373.024 331.73 372.944 331.378 372.872C331.034 372.792 330.686 372.696 330.334 372.584C329.99 372.472 329.674 372.328 329.386 372.152C329.098 371.976 328.862 371.744 328.678 371.456C328.502 371.168 328.414 370.8 328.414 370.352C328.414 369.872 328.542 369.436 328.798 369.044C329.062 368.644 329.454 368.328 329.974 368.096C330.502 367.856 331.162 367.736 331.954 367.736C332.482 367.736 333.002 367.8 333.514 367.928C334.026 368.048 334.478 368.232 334.87 368.48L334.27 369.956C333.878 369.732 333.486 369.568 333.094 369.464C332.702 369.352 332.318 369.296 331.942 369.296C331.566 369.296 331.258 369.34 331.018 369.428C330.778 369.516 330.606 369.632 330.502 369.776C330.398 369.912 330.346 370.072 330.346 370.256C330.346 370.472 330.434 370.648 330.61 370.784C330.786 370.912 331.018 371.016 331.306 371.096C331.594 371.176 331.91 371.256 332.254 371.336C332.606 371.416 332.954 371.508 333.298 371.612C333.65 371.716 333.97 371.856 334.258 372.032C334.546 372.208 334.778 372.44 334.954 372.728C335.138 373.016 335.23 373.38 335.23 373.82C335.23 374.292 335.098 374.724 334.834 375.116C334.57 375.508 334.174 375.824 333.646 376.064C333.126 376.304 332.466 376.424 331.666 376.424ZM336.558 376.28V367.88H340.194C340.946 367.88 341.594 368.004 342.138 368.252C342.682 368.492 343.102 368.84 343.398 369.296C343.694 369.752 343.842 370.296 343.842 370.928C343.842 371.552 343.694 372.092 343.398 372.548C343.102 373.004 342.682 373.356 342.138 373.604C341.594 373.844 340.946 373.964 340.194 373.964H337.638L338.502 373.088V376.28H336.558ZM338.502 373.304L337.638 372.38H340.086C340.686 372.38 341.134 372.252 341.43 371.996C341.726 371.74 341.874 371.384 341.874 370.928C341.874 370.464 341.726 370.104 341.43 369.848C341.134 369.592 340.686 369.464 340.086 369.464H337.638L338.502 368.54V373.304Z" fill="#FFFBC5"/>
<path d="M305.942 343.367C303.971 337.454 323.993 320.287 327.843 327.787C334.271 319.235 346.306 329.631 350.824 323.209C351.972 321.622 354.328 321.522 355.153 319.776C355.532 318.951 354.58 316.534 355.088 315.263C356.679 311.318 349.424 312.529 354.961 307.597C360.246 302.892 352.733 302.096 353.562 298.095C354.674 292.75 355.662 292.623 360.085 291.098C362.344 290.299 361.138 281.495 360.182 281.207C360.056 278.074 362.476 278.252 364.577 279.33C367.12 279.174 364.257 275.041 365.69 274.405C365.275 274.58 372.15 276.725 372.342 276.79C373.488 277.206 371.738 280.893 371.26 281.368C380.81 278.634 388.129 267.682 398.316 268.317C404.107 268.684 397.935 273.354 404.553 274.753C405.348 276.185 408.435 273.529 409.265 273.373C412.607 272.75 415.692 277.185 418.686 277.884C421.36 282.037 427.406 278.507 430.654 281.368C432.694 283.212 433.197 285.311 434.601 287.535C436.128 289.917 439.087 286.995 441.256 287.409C445.042 288.17 448.608 289.761 452.109 291.731C454.654 293.129 453.002 295.421 451.472 297.039C450.583 297.963 447.684 304.196 448.419 303.59C445.934 305.658 445.365 301.653 444.471 306.799C443.741 311.064 444.661 312.271 448.131 314.942C453.827 318.691 440.268 318.564 440.332 319.01C440.588 319.708 437.025 367.72 435.875 367.974C428.045 369.788 419.008 374.14 410.604 376.114C395.802 379.579 382.368 380.5 376.352 381.519C376.352 383.205 370.114 389.497 366.452 382.981C366.452 382.981 362.918 374.524 363.173 374.589C363.295 374.558 365.658 368.197 365.781 367.465C366.674 363.397 359.922 366.577 359.1 364.925C358.079 362.823 356.359 359.612 356.582 357.23C358.557 355.832 358.526 354.464 356.489 353.095C355.281 351.824 355.089 350.422 355.884 348.833C353.177 347.18 352.322 345.718 349.262 345.975C347.543 346.135 344.549 350.233 342.862 346.705C343.883 349.152 337.995 347.597 336.942 348.516C334.206 347.12 334.874 350.87 334.171 352.078C334.012 352.334 332.993 348.707 332.934 348.641C331.598 347.277 329.718 353.476 328.86 348.577C329.75 343.812 323.447 345.432 319.946 345.176C314.474 344.766 313.519 343.303 308.489 345.908C306.072 347.148 305.309 345.653 305.942 343.367Z" fill="#7F0098" stroke="#FFBF00" stroke-width="2" stroke-linecap="round" stroke-linejoin="round"/>
<path d="M384.234 328.843V320.443H385.842L389.418 326.371H388.566L392.082 320.443H393.678L393.702 328.843H391.878L391.866 323.239H392.202L389.394 327.955H388.518L385.65 323.239H386.058V328.843H384.234ZM399.751 328.987C399.087 328.987 398.475 328.883 397.915 328.675C397.363 328.459 396.879 328.155 396.463 327.763C396.055 327.371 395.735 326.911 395.503 326.383C395.279 325.855 395.167 325.275 395.167 324.643C395.167 324.011 395.279 323.431 395.503 322.903C395.735 322.375 396.059 321.915 396.475 321.523C396.891 321.131 397.379 320.831 397.939 320.623C398.499 320.407 399.115 320.299 399.787 320.299C400.531 320.299 401.199 320.423 401.791 320.671C402.391 320.919 402.895 321.279 403.303 321.751L402.055 322.903C401.751 322.583 401.419 322.347 401.059 322.195C400.699 322.035 400.307 321.955 399.883 321.955C399.475 321.955 399.103 322.019 398.767 322.147C398.431 322.275 398.139 322.459 397.891 322.699C397.651 322.939 397.463 323.223 397.327 323.551C397.199 323.879 397.135 324.243 397.135 324.643C397.135 325.035 397.199 325.395 397.327 325.723C397.463 326.051 397.651 326.339 397.891 326.587C398.139 326.827 398.427 327.011 398.755 327.139C399.091 327.267 399.459 327.331 399.859 327.331C400.243 327.331 400.615 327.271 400.975 327.151C401.343 327.023 401.699 326.811 402.043 326.515L403.147 327.919C402.691 328.263 402.159 328.527 401.551 328.711C400.951 328.895 400.351 328.987 399.751 328.987ZM401.371 327.667V324.511H403.147V327.919L401.371 327.667Z" fill="#FFFBC5"/>
<path d="M387.304 389.946C385.839 386.733 397.077 384.38 396.473 382.157C392.781 379.993 391.125 383.489 388.768 378.722C393.735 377.925 399.847 373.509 404.843 374.587C405.48 374.332 410.54 372.552 410.607 374.781C413.566 372.963 416.975 371.981 420.027 370.326C422.637 368.926 421.11 360.786 424.356 359.132C431.392 355.507 425.981 361.263 432.569 362.567C439.412 363.966 438.839 364.285 439.125 370.771C439.412 377.321 428.94 375.857 426.267 380.945C425.059 383.265 428.24 387.176 422.353 386.637C417.485 386.157 410.001 389.37 411.561 382.945C410.354 382.852 409.399 383.294 408.698 384.25C408.698 384.25 408.82 387.462 407.838 387.432C406.947 387.367 398.955 388.702 399.18 387.969C400.805 387.552 402.328 387.175 403.986 387.047C402.049 386.22 400.549 384.913 398.29 386.883C398.83 387.109 393.377 386.783 394.363 386.751C393.757 388.756 389.93 387.563 389.855 390.286C391.756 390.502 388.513 395.728 387.304 389.946Z" fill="#7F0098" stroke="#FFBF00" stroke-width="2" stroke-linecap="round" stroke-linejoin="round"/>
<path d="M427.596 381.305C427.596 373.508 421.271 367.235 413.506 367.235C405.738 367.235 399.416 373.508 399.416 381.305C399.416 389.068 405.736 395.381 413.506 395.381C421.271 395.381 427.596 389.065 427.596 381.305Z" fill="#7F0098" stroke="#FFBF00" stroke-width="2"/>
<path d="M406.812 386.235V377.835H410.448C411.2 377.835 411.848 377.959 412.392 378.207C412.936 378.447 413.356 378.795 413.652 379.251C413.948 379.707 414.096 380.251 414.096 380.883C414.096 381.507 413.948 382.047 413.652 382.503C413.356 382.951 412.936 383.295 412.392 383.535C411.848 383.775 411.2 383.895 410.448 383.895H407.892L408.756 383.043V386.235H406.812ZM412.152 386.235L410.052 383.187H412.128L414.252 386.235H412.152ZM408.756 383.259L407.892 382.347H410.34C410.94 382.347 411.388 382.219 411.684 381.963C411.98 381.699 412.128 381.339 412.128 380.883C412.128 380.419 411.98 380.059 411.684 379.803C411.388 379.547 410.94 379.419 410.34 379.419H407.892L408.756 378.495V383.259ZM417.067 386.379C416.499 386.379 415.975 386.275 415.495 386.067C415.023 385.851 414.635 385.547 414.331 385.155L415.411 383.859C415.643 384.163 415.887 384.395 416.143 384.555C416.399 384.707 416.675 384.783 416.971 384.783C417.763 384.783 418.159 384.319 418.159 383.391V379.395H415.207V377.835H420.091V383.283C420.091 384.323 419.835 385.099 419.323 385.611C418.811 386.123 418.059 386.379 417.067 386.379Z" fill="#FFFBC5"/>
<path d="M427.09 356.751C428.303 354.431 426.744 350.423 429.23 349.407C433.526 347.721 433.713 348.865 436.134 344.195C437.026 342.381 440.782 337.454 439.444 335.1C438.934 334.212 435.721 330.905 435.625 330.398C436.834 330.109 438.042 330.144 439.255 330.461C440.842 329.702 431.741 318.25 441.739 321.111C440.339 320.351 439.955 319.527 440.655 318.633C445.72 318.473 456.759 318.664 455.584 326.455C454.914 330.907 456.668 335.833 454.914 340.158C454.66 340.826 448.102 350.552 448.137 350.552C449.281 354.37 442.116 357.294 441.101 360.031C439.575 364.163 438.619 363.528 434.576 363.017C432.67 362.699 430.854 362.126 429.072 361.333C429.066 359.61 429.769 357.008 427.09 356.751Z" fill="#7F0098" stroke="#FFBF00" stroke-width="2" stroke-linecap="round" stroke-linejoin="round"/>
<path d="M458.594 342.309C458.594 334.55 452.275 328.235 444.506 328.235C436.735 328.235 430.416 334.549 430.416 342.309C430.416 350.074 436.736 356.381 444.506 356.381C452.275 356.381 458.594 350.074 458.594 342.309Z" fill="#7F0098" stroke="#FFBF00" stroke-width="2"/>
<mask id="path-54-inside-2_263_186" fill="white">
<path d="M439.349 342.219H443.393V343.731H439.349V342.219ZM439.493 345.675H444.065V347.235H437.561V338.835H443.909V340.395H439.493V345.675ZM448.371 347.379C447.699 347.379 447.055 347.291 446.439 347.115C445.823 346.931 445.327 346.695 444.951 346.407L445.611 344.943C445.971 345.199 446.395 345.411 446.883 345.579C447.379 345.739 447.879 345.819 448.383 345.819C448.767 345.819 449.075 345.783 449.307 345.711C449.547 345.631 449.723 345.523 449.835 345.387C449.947 345.251 450.003 345.095 450.003 344.919C450.003 344.695 449.915 344.519 449.739 344.391C449.563 344.255 449.331 344.147 449.043 344.067C448.755 343.979 448.435 343.899 448.083 343.827C447.739 343.747 447.391 343.651 447.039 343.539C446.695 343.427 446.379 343.283 446.091 343.107C445.803 342.931 445.567 342.699 445.383 342.411C445.207 342.123 445.119 341.755 445.119 341.307C445.119 340.827 445.247 340.391 445.503 339.999C445.767 339.599 446.159 339.283 446.679 339.051C447.207 338.811 447.867 338.691 448.659 338.691C449.187 338.691 449.707 338.755 450.219 338.883C450.731 339.003 451.183 339.187 451.575 339.435L450.975 340.911C450.583 340.687 450.191 340.523 449.799 340.419C449.407 340.307 449.023 340.251 448.647 340.251C448.271 340.251 447.963 340.295 447.723 340.383C447.483 340.471 447.311 340.587 447.207 340.731C447.103 340.867 447.051 341.027 447.051 341.211C447.051 341.427 447.139 341.603 447.315 341.739C447.491 341.867 447.723 341.971 448.011 342.051C448.299 342.131 448.615 342.211 448.959 342.291C449.311 342.371 449.659 342.463 450.003 342.567C450.355 342.671 450.675 342.811 450.963 342.987C451.251 343.163 451.483 343.395 451.659 343.683C451.843 343.971 451.935 344.335 451.935 344.775C451.935 345.247 451.803 345.679 451.539 346.071C451.275 346.463 450.879 346.779 450.351 347.019C449.831 347.259 449.171 347.379 448.371 347.379Z"/>
</mask>
<path d="M439.349 342.219H443.393V343.731H439.349V342.219ZM439.493 345.675H444.065V347.235H437.561V338.835H443.909V340.395H439.493V345.675ZM448.371 347.379C447.699 347.379 447.055 347.291 446.439 347.115C445.823 346.931 445.327 346.695 444.951 346.407L445.611 344.943C445.971 345.199 446.395 345.411 446.883 345.579C447.379 345.739 447.879 345.819 448.383 345.819C448.767 345.819 449.075 345.783 449.307 345.711C449.547 345.631 449.723 345.523 449.835 345.387C449.947 345.251 450.003 345.095 450.003 344.919C450.003 344.695 449.915 344.519 449.739 344.391C449.563 344.255 449.331 344.147 449.043 344.067C448.755 343.979 448.435 343.899 448.083 343.827C447.739 343.747 447.391 343.651 447.039 343.539C446.695 343.427 446.379 343.283 446.091 343.107C445.803 342.931 445.567 342.699 445.383 342.411C445.207 342.123 445.119 341.755 445.119 341.307C445.119 340.827 445.247 340.391 445.503 339.999C445.767 339.599 446.159 339.283 446.679 339.051C447.207 338.811 447.867 338.691 448.659 338.691C449.187 338.691 449.707 338.755 450.219 338.883C450.731 339.003 451.183 339.187 451.575 339.435L450.975 340.911C450.583 340.687 450.191 340.523 449.799 340.419C449.407 340.307 449.023 340.251 448.647 340.251C448.271 340.251 447.963 340.295 447.723 340.383C447.483 340.471 447.311 340.587 447.207 340.731C447.103 340.867 447.051 341.027 447.051 341.211C447.051 341.427 447.139 341.603 447.315 341.739C447.491 341.867 447.723 341.971 448.011 342.051C448.299 342.131 448.615 342.211 448.959 342.291C449.311 342.371 449.659 342.463 450.003 342.567C450.355 342.671 450.675 342.811 450.963 342.987C451.251 343.163 451.483 343.395 451.659 343.683C451.843 343.971 451.935 344.335 451.935 344.775C451.935 345.247 451.803 345.679 451.539 346.071C451.275 346.463 450.879 346.779 450.351 347.019C449.831 347.259 449.171 347.379 448.371 347.379Z" fill="#7F0098"/>
<path d="M439.349 342.219V340.219H437.349V342.219H439.349ZM443.393 342.219H445.393V340.219H443.393V342.219ZM443.393 343.731V345.731H445.393V343.731H443.393ZM439.349 343.731H437.349V345.731H439.349V343.731ZM439.493 345.675H437.493V347.675H439.493V345.675ZM444.065 345.675H446.065V343.675H444.065V345.675ZM444.065 347.235V349.235H446.065V347.235H444.065ZM437.561 347.235H435.561V349.235H437.561V347.235ZM437.561 338.835V336.835H435.561V338.835H437.561ZM443.909 338.835H445.909V336.835H443.909V338.835ZM443.909 340.395V342.395H445.909V340.395H443.909ZM439.493 340.395V338.395H437.493V340.395H439.493ZM439.349 344.219H443.393V340.219H439.349V344.219ZM441.393 342.219V343.731H445.393V342.219H441.393ZM443.393 341.731H439.349V345.731H443.393V341.731ZM441.349 343.731V342.219H437.349V343.731H441.349ZM439.493 347.675H444.065V343.675H439.493V347.675ZM442.065 345.675V347.235H446.065V345.675H442.065ZM444.065 345.235H437.561V349.235H444.065V345.235ZM439.561 347.235V338.835H435.561V347.235H439.561ZM437.561 340.835H443.909V336.835H437.561V340.835ZM441.909 338.835V340.395H445.909V338.835H441.909ZM443.909 338.395H439.493V342.395H443.909V338.395ZM437.493 340.395V345.675H441.493V340.395H437.493ZM446.439 347.115L445.867 349.031L445.878 349.035L445.89 349.038L446.439 347.115ZM444.951 346.407L443.128 345.585L442.476 347.031L443.735 347.995L444.951 346.407ZM445.611 344.943L446.77 343.313L444.788 341.903L443.788 344.121L445.611 344.943ZM446.883 345.579L446.232 347.47L446.251 347.477L446.269 347.483L446.883 345.579ZM449.307 345.711L449.9 347.621L449.92 347.615L449.94 347.608L449.307 345.711ZM449.835 345.387L448.291 344.116V344.116L449.835 345.387ZM449.739 344.391L448.516 345.974L448.539 345.991L448.563 346.009L449.739 344.391ZM449.043 344.067L448.459 345.98L448.483 345.987L448.508 345.994L449.043 344.067ZM448.083 343.827L447.63 345.775L447.656 345.781L447.683 345.787L448.083 343.827ZM447.039 343.539L446.42 345.441L446.433 345.445L447.039 343.539ZM446.091 343.107L445.048 344.814L445.048 344.814L446.091 343.107ZM445.383 342.411L443.677 343.454L443.687 343.471L443.698 343.488L445.383 342.411ZM445.503 339.999L443.834 338.897L443.829 338.906L445.503 339.999ZM446.679 339.051L447.494 340.878L447.507 340.872L446.679 339.051ZM450.219 338.883L449.734 340.823L449.749 340.827L449.763 340.83L450.219 338.883ZM451.575 339.435L453.428 340.188L454.058 338.639L452.645 337.745L451.575 339.435ZM450.975 340.911L449.983 342.648L451.967 343.782L452.828 341.664L450.975 340.911ZM449.799 340.419L449.25 342.342L449.268 342.347L449.286 342.352L449.799 340.419ZM447.723 340.383L447.035 338.505L447.035 338.505L447.723 340.383ZM447.207 340.731L448.796 341.946L448.813 341.924L448.829 341.902L447.207 340.731ZM447.315 341.739L446.092 343.322L446.115 343.339L446.139 343.357L447.315 341.739ZM448.011 342.051L447.476 343.978H447.476L448.011 342.051ZM448.959 342.291L448.506 344.239L448.516 344.241L448.959 342.291ZM450.003 342.567L449.425 344.482L449.437 344.485L450.003 342.567ZM450.963 342.987L452.006 341.281L450.963 342.987ZM451.659 343.683L449.953 344.726L449.963 344.743L449.974 344.76L451.659 343.683ZM451.539 346.071L453.198 347.188L451.539 346.071ZM450.351 347.019L449.524 345.198L449.513 345.203L450.351 347.019ZM448.371 345.379C447.876 345.379 447.417 345.315 446.989 345.192L445.89 349.038C446.693 349.268 447.523 349.379 448.371 349.379V345.379ZM447.012 345.199C446.551 345.061 446.295 344.917 446.167 344.819L443.735 347.995C444.359 348.473 445.096 348.801 445.867 349.031L447.012 345.199ZM446.775 347.229L447.435 345.765L443.788 344.121L443.128 345.585L446.775 347.229ZM444.452 346.573C444.992 346.957 445.593 347.25 446.232 347.47L447.534 343.688C447.198 343.572 446.951 343.441 446.77 343.313L444.452 346.573ZM446.269 347.483C446.957 347.704 447.664 347.819 448.383 347.819V343.819C448.095 343.819 447.802 343.774 447.497 343.676L446.269 347.483ZM448.383 347.819C448.866 347.819 449.398 347.777 449.9 347.621L448.714 343.801C448.743 343.792 448.734 343.798 448.67 343.806C448.609 343.813 448.515 343.819 448.383 343.819V347.819ZM449.94 347.608C450.389 347.459 450.946 347.185 451.379 346.659L448.291 344.116C448.501 343.861 448.706 343.803 448.675 343.814L449.94 347.608ZM451.379 346.659C451.786 346.165 452.003 345.56 452.003 344.919H448.003C448.003 344.791 448.024 344.644 448.079 344.492C448.133 344.341 448.21 344.214 448.291 344.116L451.379 346.659ZM452.003 344.919C452.003 344.077 451.627 343.291 450.916 342.774L448.563 346.009C448.42 345.904 448.262 345.741 448.148 345.514C448.035 345.288 448.003 345.074 448.003 344.919H452.003ZM450.962 342.809C450.524 342.47 450.035 342.267 449.579 342.14L448.508 345.994C448.535 346.002 448.555 346.008 448.569 346.013C448.583 346.018 448.589 346.021 448.589 346.021C448.59 346.022 448.562 346.009 448.516 345.974L450.962 342.809ZM449.628 342.154C449.269 342.045 448.887 341.95 448.484 341.868L447.683 345.787C447.984 345.848 448.241 345.913 448.459 345.98L449.628 342.154ZM448.536 341.879C448.246 341.812 447.949 341.73 447.646 341.633L446.433 345.445C446.833 345.572 447.232 345.683 447.63 345.775L448.536 341.879ZM447.658 341.637C447.452 341.57 447.28 341.49 447.134 341.401L445.048 344.814C445.479 345.077 445.938 345.284 446.42 345.441L447.658 341.637ZM447.134 341.401C447.109 341.385 447.091 341.37 447.069 341.334L443.698 343.488C444.043 344.029 444.498 344.477 445.048 344.814L447.134 341.401ZM447.09 341.368C447.124 341.423 447.132 341.458 447.13 341.454C447.129 341.447 447.119 341.402 447.119 341.307H443.119C443.119 342.006 443.256 342.765 443.677 343.454L447.09 341.368ZM447.119 341.307C447.119 341.205 447.14 341.151 447.178 341.093L443.829 338.906C443.355 339.631 443.119 340.449 443.119 341.307H447.119ZM447.173 341.101C447.19 341.074 447.256 340.984 447.494 340.878L445.864 337.225C445.063 337.582 444.345 338.124 443.834 338.897L447.173 341.101ZM447.507 340.872C447.698 340.785 448.054 340.691 448.659 340.691V336.691C447.68 336.691 446.716 336.837 445.852 337.23L447.507 340.872ZM448.659 340.691C449.024 340.691 449.381 340.735 449.734 340.823L450.704 336.943C450.034 336.775 449.351 336.691 448.659 336.691V340.691ZM449.763 340.83C450.086 340.906 450.326 341.011 450.506 341.125L452.645 337.745C452.041 337.363 451.376 337.1 450.676 336.936L449.763 340.83ZM449.723 338.682L449.123 340.158L452.828 341.664L453.428 340.188L449.723 338.682ZM451.968 339.175C451.442 338.874 450.89 338.639 450.312 338.486L449.286 342.352C449.493 342.407 449.725 342.5 449.983 342.648L451.968 339.175ZM450.349 338.496C449.793 338.337 449.224 338.251 448.647 338.251V342.251C448.823 342.251 449.022 342.277 449.25 342.342L450.349 338.496ZM448.647 338.251C448.137 338.251 447.573 338.308 447.035 338.505L448.412 342.261C448.376 342.274 448.373 342.27 448.417 342.264C448.461 342.258 448.535 342.251 448.647 342.251V338.251ZM447.035 338.505C446.577 338.673 446.005 338.98 445.586 339.56L448.829 341.902C448.722 342.05 448.609 342.142 448.533 342.194C448.494 342.22 448.463 342.237 448.444 342.247C448.424 342.257 448.412 342.261 448.412 342.261L447.035 338.505ZM445.619 339.516C445.227 340.028 445.051 340.623 445.051 341.211H449.051C449.051 341.309 449.037 341.434 448.992 341.571C448.947 341.71 448.879 341.837 448.796 341.946L445.619 339.516ZM445.051 341.211C445.051 342.068 445.443 342.82 446.092 343.322L448.538 340.157C448.657 340.248 448.799 340.397 448.906 340.611C449.014 340.827 449.051 341.039 449.051 341.211H445.051ZM446.139 343.357C446.566 343.667 447.038 343.856 447.476 343.978L448.547 340.124C448.483 340.106 448.45 340.093 448.439 340.088C448.429 340.083 448.451 340.092 448.492 340.122L446.139 343.357ZM447.476 343.978C447.796 344.067 448.139 344.154 448.506 344.239L449.412 340.343C449.091 340.268 448.803 340.195 448.547 340.124L447.476 343.978ZM448.516 344.241C448.823 344.311 449.125 344.391 449.425 344.482L450.582 340.653C450.193 340.535 449.8 340.431 449.403 340.341L448.516 344.241ZM449.437 344.485C449.636 344.544 449.794 344.616 449.92 344.694L452.006 341.281C451.557 341.006 451.075 340.798 450.57 340.649L449.437 344.485ZM449.92 344.694C449.933 344.702 449.938 344.706 449.939 344.707C449.94 344.708 449.945 344.713 449.953 344.726L453.366 342.64C453.024 342.081 452.565 341.622 452.006 341.281L449.92 344.694ZM449.974 344.76C449.957 344.734 449.946 344.711 449.938 344.693C449.931 344.675 449.928 344.664 449.927 344.662C449.927 344.659 449.935 344.693 449.935 344.775H453.935C453.935 344.062 453.786 343.296 453.345 342.606L449.974 344.76ZM449.935 344.775C449.935 344.849 449.922 344.892 449.88 344.954L453.198 347.188C453.684 346.467 453.935 345.646 453.935 344.775H449.935ZM449.88 344.954C449.865 344.976 449.791 345.077 449.524 345.198L451.179 348.84C451.967 348.482 452.685 347.95 453.198 347.188L449.88 344.954ZM449.513 345.203C449.339 345.284 448.989 345.379 448.371 345.379V349.379C449.353 349.379 450.324 349.234 451.189 348.835L449.513 345.203Z" fill="#FFFBC5" mask="url(#path-54-inside-2_263_186)"/>
<path d="M340.321 284.038C340.321 284.038 355.347 280.668 356.81 284.038C358.243 287.408 357.576 296.439 355.155 297.392C352.738 298.378 338.54 295.296 338.857 293.546C339.207 291.764 340.321 284.038 340.321 284.038Z" fill="#7F0098" stroke="#FFBF00" stroke-width="2" stroke-linecap="round" stroke-linejoin="round"/>
<path d="M336.416 288.304V288.304C336.416 296.066 342.736 302.379 350.504 302.379C358.275 302.379 364.59 296.066 364.59 288.304C364.59 280.526 358.274 274.235 350.504 274.235C342.734 274.235 336.417 280.528 336.416 288.304Z" fill="#7F0098" stroke="#FFBF00" stroke-width="2"/>
<path d="M342.623 293.235V284.835H346.439C347.351 284.835 348.155 285.011 348.851 285.363C349.547 285.707 350.091 286.191 350.483 286.815C350.875 287.439 351.071 288.179 351.071 289.035C351.071 289.883 350.875 290.623 350.483 291.255C350.091 291.879 349.547 292.367 348.851 292.719C348.155 293.063 347.351 293.235 346.439 293.235H342.623ZM344.567 291.639H346.343C346.903 291.639 347.387 291.535 347.795 291.327C348.211 291.111 348.531 290.807 348.755 290.415C348.987 290.023 349.103 289.563 349.103 289.035C349.103 288.499 348.987 288.039 348.755 287.655C348.531 287.263 348.211 286.963 347.795 286.755C347.387 286.539 346.903 286.431 346.343 286.431H344.567V291.639ZM354.337 288.615H358.369V290.175H354.337V288.615ZM354.481 293.235H352.537V284.835H358.885V286.395H354.481V293.235Z" fill="#FFFBC5"/>
<path d="M467.135 162.029C469.554 158.452 486.65 154.112 489.354 156.671C489.354 158.897 497.79 158.628 501.13 159.819C500.559 163.346 515.835 161.598 517.876 162.441C519.527 163.125 522.331 176.352 519.527 176.606C518.511 175.301 517.106 174.587 515.36 174.476C511.923 174.445 512.4 176.639 510.265 178.084C507.214 180.135 502.629 180.309 499.157 180.532C498.969 181.962 494.574 185.684 493.045 186.239C489.416 187.573 489.957 183.073 487.123 182.058C487.952 180.753 491.868 176.018 491.453 174.854C489.799 170.39 477.447 181.262 474.041 178.924C472.419 177.795 466.815 180.658 470.001 175.92C471.783 173.266 465.768 164.111 467.135 162.029Z" fill="#7F0098" stroke="#FFBF00" stroke-width="2" stroke-linecap="round" stroke-linejoin="round"/>
<path d="M518.586 166.308C518.586 158.547 512.301 152.235 504.499 152.235C496.733 152.235 490.416 158.544 490.416 166.308C490.416 174.089 496.733 180.381 504.499 180.381C512.301 180.381 518.586 174.088 518.586 166.308Z" fill="#7F0098" stroke="#FFBF00" stroke-width="2"/>
<path d="M496.488 170.235V161.835H500.124C500.876 161.835 501.524 161.959 502.068 162.207C502.612 162.447 503.032 162.795 503.328 163.251C503.624 163.707 503.772 164.251 503.772 164.883C503.772 165.507 503.624 166.047 503.328 166.503C503.032 166.959 502.612 167.311 502.068 167.559C501.524 167.799 500.876 167.919 500.124 167.919H497.568L498.432 167.043V170.235H496.488ZM498.432 167.259L497.568 166.335H500.016C500.616 166.335 501.064 166.207 501.36 165.951C501.656 165.695 501.804 165.339 501.804 164.883C501.804 164.419 501.656 164.059 501.36 163.803C501.064 163.547 500.616 163.419 500.016 163.419H497.568L498.432 162.495V167.259ZM505.16 170.235V161.835H509.264C510.32 161.835 511.112 162.035 511.64 162.435C512.176 162.835 512.444 163.363 512.444 164.019C512.444 164.459 512.336 164.843 512.12 165.171C511.904 165.491 511.608 165.739 511.232 165.915C510.856 166.091 510.424 166.179 509.936 166.179L510.164 165.687C510.692 165.687 511.16 165.775 511.568 165.951C511.976 166.119 512.292 166.371 512.516 166.707C512.748 167.043 512.864 167.455 512.864 167.943C512.864 168.663 512.58 169.227 512.012 169.635C511.444 170.035 510.608 170.235 509.504 170.235H505.16ZM507.092 168.771H509.36C509.864 168.771 510.244 168.691 510.5 168.531C510.764 168.363 510.896 168.099 510.896 167.739C510.896 167.387 510.764 167.127 510.5 166.959C510.244 166.783 509.864 166.695 509.36 166.695H506.948V165.279H509.024C509.496 165.279 509.856 165.199 510.104 165.039C510.36 164.871 510.488 164.619 510.488 164.283C510.488 163.955 510.36 163.711 510.104 163.551C509.856 163.383 509.496 163.299 509.024 163.299H507.092V168.771Z" fill="#FFFBC5"/>
</svg>
