<svg width="523" height="534" viewBox="0 0 523 534" fill="none" xmlns="http://www.w3.org/2000/svg">
<path d="M336.947 271.784C355.663 272.451 389.215 235.045 389.055 219.244C388.897 203.442 369.033 151.396 363.081 142.524C357.128 133.669 319.026 145.433 319.026 145.433C319.026 145.433 273.366 269.524 336.947 271.784Z" fill="#7F0098" stroke="#FFBF00" stroke-width="2" stroke-linecap="round" stroke-linejoin="round"/>
<path d="M337.013 214.921V208.105H334.325V206.521H341.645V208.105H338.957V214.921H337.013ZM346.654 215.065C345.99 215.065 345.374 214.957 344.806 214.741C344.246 214.525 343.758 214.221 343.342 213.829C342.934 213.437 342.614 212.977 342.382 212.449C342.158 211.921 342.046 211.345 342.046 210.721C342.046 210.097 342.158 209.521 342.382 208.993C342.614 208.465 342.938 208.005 343.354 207.613C343.77 207.221 344.258 206.917 344.818 206.701C345.378 206.485 345.986 206.377 346.642 206.377C347.306 206.377 347.914 206.485 348.466 206.701C349.026 206.917 349.51 207.221 349.918 207.613C350.334 208.005 350.658 208.465 350.89 208.993C351.122 209.513 351.238 210.089 351.238 210.721C351.238 211.345 351.122 211.925 350.89 212.461C350.658 212.989 350.334 213.449 349.918 213.841C349.51 214.225 349.026 214.525 348.466 214.741C347.914 214.957 347.31 215.065 346.654 215.065ZM346.642 213.409C347.018 213.409 347.362 213.345 347.674 213.217C347.994 213.089 348.274 212.905 348.514 212.665C348.754 212.425 348.938 212.141 349.066 211.813C349.202 211.485 349.27 211.121 349.27 210.721C349.27 210.321 349.202 209.957 349.066 209.629C348.938 209.301 348.754 209.017 348.514 208.777C348.282 208.537 348.006 208.353 347.686 208.225C347.366 208.097 347.018 208.033 346.642 208.033C346.266 208.033 345.918 208.097 345.598 208.225C345.286 208.353 345.01 208.537 344.77 208.777C344.53 209.017 344.342 209.301 344.206 209.629C344.078 209.957 344.014 210.321 344.014 210.721C344.014 211.113 344.078 211.477 344.206 211.813C344.342 212.141 344.526 212.425 344.758 212.665C344.998 212.905 345.278 213.089 345.598 213.217C345.918 213.345 346.266 213.409 346.642 213.409Z" fill="#FFFBC5"/>
<path d="M364.512 227.826C366.934 224.646 368.587 219.686 372.025 217.652C373.932 216.523 375.781 212.215 376.989 211.659C379.667 210.481 391.123 182.471 401.054 185.524C402.326 185.921 435.782 189.561 438.423 194.268C441.033 193.68 458.857 184.047 468.442 188.464C479.102 193.393 481.488 212.47 481.459 212.66C481.583 213.041 480.502 219.353 480.314 219.543C478.977 220.704 474.203 218.606 475.409 222.025C476.94 226.38 481.33 234.311 486.997 229.702C482.732 237.334 479.04 248.301 470.765 250.304C464.015 251.942 465.413 265.884 464.747 271.243C464.207 275.596 464.97 281.05 465.926 285.309C467.26 291.066 464.971 295.292 463.824 300.888C462.869 305.719 463.57 310.522 462.677 315.163C462.362 316.656 457.555 321.807 456.216 323.461C454.338 321.805 381.89 280.221 371.258 281.362C372.593 277.023 374.091 270.265 370.397 266.592C360.373 256.641 370.24 244.147 370.208 244.034C369.574 242.032 363.937 236.977 370.178 235.705C366.488 236.818 367.919 231.03 371.195 232.208C368.522 231.26 365.405 231.021 364.512 227.826Z" fill="#FFFBC5" stroke="#FFBF00" stroke-width="2" stroke-linecap="round" stroke-linejoin="round"/>
<path d="M475.255 220.814C475.86 219.067 478.12 219.973 479.361 219.893C482.003 219.702 479.935 216.714 480.633 215.507C482.988 211.104 477.451 208.543 478.311 203.425C482.988 205.666 489.292 207.368 492.732 211.423C494.293 213.203 499.129 214.506 499.51 217.05C491.582 217.495 491.49 227.287 485.631 230.483C481.047 232.977 473.504 223.12 475.255 220.814Z" fill="#FFFBC5" stroke="#FFBF00" stroke-width="2" stroke-linecap="round" stroke-linejoin="round"/>
<path d="M433.938 192.377C437.086 191.454 441.164 176.001 443.613 174.84C448.42 172.535 463.667 173.172 464.301 180.532C463.793 180.453 473.818 177.894 472.993 178.83C474.969 178.005 485.217 173.348 487.636 173.235C487.954 173.22 492.986 174.286 491.202 175.922C490.662 176.432 496.105 180.215 503.741 179.927C509.157 179.723 509.76 175.939 513.767 174.809C520.613 172.87 519.273 179.102 520.263 182.869C518.889 185.985 518.35 189.354 517.078 192.487C515.297 196.889 505.684 203.853 501.516 206.555C493.047 212.102 476.177 201.834 475.062 199.973C474.362 198.83 472.098 194.028 471.368 194.045C470.637 194.458 470.16 195.044 469.872 195.808C468.822 195.793 461.439 191.707 461.153 190.404C455.611 189.068 454.848 197.495 450.743 197.59C450.998 197.715 441.162 205.346 442.02 201.437C446.193 196.047 435.367 193.918 433.938 192.377Z" fill="#FFFBC5" stroke="#FFBF00" stroke-width="2" stroke-linecap="round" stroke-linejoin="round"/>
<path d="M481.521 194.443C485.915 198.289 492.474 200.834 496.104 200.818C499.857 200.803 501.925 196.954 504.729 195.252C506.097 194.426 516.696 193.012 515.391 196.462C513.291 202.09 507.114 206.428 503.741 211.308C500.496 213.63 499.763 219.542 496.356 213.472C492.568 213.964 492.03 208.337 488.271 208.275C484.007 205.65 478.975 203.9 475.252 200.913C477.642 198.655 480.124 197.161 481.521 194.443Z" fill="#FFFBC5" stroke="#FFBF00" stroke-width="2" stroke-linecap="round" stroke-linejoin="round"/>
<path d="M470.765 159.358C473.535 154.683 478.405 152.25 480.632 146.415C482.925 140.487 485.088 139.661 490.818 141.027C496.677 142.428 501.672 141.998 507.752 142.966C516.508 144.351 515.711 155.699 518.451 162.139C516.221 163.412 502.212 162.744 500.943 160.216C499.733 157.816 497.568 168.466 495.023 168.69C496.803 161.903 480.316 170.757 488.719 158.61C491.677 154.35 481.395 157.672 480.919 159.452C477.068 165.415 473.693 159.771 470.765 159.358Z" fill="#FFFBC5" stroke="#FFBF00" stroke-width="2" stroke-linecap="round" stroke-linejoin="round"/>
<path d="M433.203 119.44C433.711 117.852 436.645 115.23 434.415 113.607C448.485 112.065 454.848 112.621 466.562 121.411C471.242 124.957 474.491 127.882 478.848 132.03C480.379 133.508 487.697 137.037 488.046 139.186C487.983 138.819 481.775 143.476 481.076 145.242C479.837 148.358 477.986 152.315 476.079 154.875C476.108 154.811 468.056 159.468 471.974 159.77C466.848 164.206 470.794 169.214 471.047 173.14C471.275 176.352 465.957 181.947 463.185 179.434C460.577 177.113 458.538 172.804 454.144 173.521C451.822 173.902 447.78 176.062 445.297 174.077C442.368 171.692 449.561 168.084 444.664 165.54C436.543 161.343 443.195 147.67 436.896 142.045C432.823 138.404 438.933 133.555 437.022 129.567C436.194 127.881 434.732 120.41 433.203 119.44C436.034 121.254 433.966 117.008 433.203 119.44Z" fill="#FFFBC5"/>
<path d="M433.203 119.44C433.711 117.852 436.645 115.23 434.415 113.607C448.485 112.065 454.848 112.621 466.562 121.411C471.242 124.957 474.491 127.882 478.848 132.03C480.379 133.508 487.697 137.037 488.046 139.186C487.983 138.819 481.775 143.476 481.076 145.242C479.837 148.358 477.986 152.315 476.079 154.875C476.108 154.811 468.056 159.468 471.974 159.77C466.848 164.206 470.794 169.214 471.047 173.14C471.275 176.352 465.957 181.947 463.185 179.434C460.577 177.113 458.538 172.804 454.144 173.521C451.822 173.902 447.78 176.062 445.297 174.077C442.368 171.692 449.561 168.084 444.664 165.54C436.543 161.343 443.195 147.67 436.896 142.045C432.823 138.404 438.933 133.555 437.022 129.567C436.194 127.881 434.732 120.41 433.203 119.44ZM433.203 119.44C433.966 117.008 436.034 121.254 433.203 119.44Z" stroke="#FFBF00" stroke-width="2" stroke-linecap="round" stroke-linejoin="round"/>
<path d="M373.235 213.551C376.1 207.574 364.512 189.404 364.512 189.404C364.512 189.404 419.548 112.939 427.604 111.81C427.951 111.761 434.859 113.862 435.115 114.386C435.624 115.388 434.161 120.473 434.319 122.033C434.639 125.084 437.665 129.679 437.025 132.114C435.688 137.611 434.859 139.234 438.616 143.607C441.863 147.374 438.993 155.402 441.572 160.172C439.506 165.082 447.114 164.416 446.155 169.009C445.394 172.681 439.851 177.896 444.788 180.98C445.107 186.369 439.343 186.765 436.897 190.056C433.839 193.347 430.464 195.875 427.6 199.213C426.961 199.992 417.348 203.968 415.98 203.952C416.331 203.602 395.45 196.465 402.072 206.684C404.934 211.105 400.323 213.139 398.379 216.874C397.644 219.387 391.597 217.987 389.272 220.595C381.829 228.956 380.938 208.036 373.235 213.551Z" fill="#FFFBC5" stroke="#FFBF00" stroke-width="2" stroke-linecap="round" stroke-linejoin="round"/>
<path d="M336.118 146.626C340.893 143.461 372.374 89.7603 372.596 88.1235C374.031 88.5843 379.667 96.7545 381.384 93.9568C381.957 93.9719 381.003 96.4527 380.749 96.7383C380.686 96.5816 383.293 94.0845 383.677 93.9104C384.283 93.6399 385.941 96.1195 387.688 93.0676C394.245 94.896 389.215 109.68 398.289 106.643C396.956 107.089 399.976 107.502 399.274 108.854C405.196 101.208 409.139 108.823 417.099 110.585C419.453 111.126 424.355 111.253 426.585 110.825C431.011 109.87 424.166 118.774 424.166 118.82C422.575 122.287 418.307 120.809 416.242 125.418C415.447 127.216 412.167 130.441 412.706 132.555C413.28 134.622 415.125 135.878 413.025 137.928C413.725 141.171 416.588 146.181 412.577 148.515C407.23 153.603 415.255 157.245 414.107 161.979C413.061 166.305 406.85 168.625 403.476 165.206C397.843 165.079 395.489 169.642 391.382 172.694C388.197 175.063 381.162 175.588 379.379 179.244C377.15 183.805 375.08 189.416 373.172 194.091C371.197 198.971 380.591 215.871 368.142 212.213C367.059 211.897 364.195 206.728 364.195 205.552C364.101 201.212 361.013 200.705 358.592 196.873C359.006 193.361 361.458 188.829 364.131 187.525C368.015 185.633 366.361 179.83 361.265 182.342C357.192 184.346 355.792 179.099 353.178 176.204C353.815 176.889 349.617 170.753 349.522 171.913C349.743 169.719 352.865 165.141 353.405 162.106C354.073 158.322 354.009 154.254 352.799 150.375C352.067 147.974 347.388 145.127 345.224 145.224C343.726 145.558 342.385 145.224 341.241 144.205C338.603 144.127 338.603 146.877 336.118 146.626Z" fill="#7F0098" stroke="#FFBF00" stroke-width="2" stroke-linecap="round" stroke-linejoin="round"/>
<path d="M372.495 143.391V134.991H374.103L377.679 140.919H376.827L380.343 134.991H381.939L381.963 143.391H380.139L380.127 137.787H380.463L377.655 142.503H376.779L373.911 137.787H374.319V143.391H372.495ZM382.851 143.391L386.595 134.991H388.515L392.271 143.391H390.231L387.159 135.975H387.927L384.843 143.391H382.851ZM384.723 141.591L385.239 140.115H389.559L390.087 141.591H384.723Z" fill="#FFFBC5"/>
<path d="M262.146 43.6123C265.951 44.9647 266.778 42.0858 269.784 41.5924C273.987 40.8924 276.389 44.7558 280.287 43.9919C285 43.0864 288.531 34.6759 288.788 30.5281C294.008 26.4256 295.183 17.4591 299.736 13.4866C306.773 18.4296 306.837 31.8144 308.556 39.5887C308.365 39.6851 316.192 48.8734 317.789 49.6674C321.736 51.591 321.701 56.8683 317.879 60.5099C313.49 64.674 309.222 100.299 309.222 100.299H255.191C255.191 100.299 256.275 41.8304 255.191 40.5731C258.213 40.5581 259.98 42.8322 262.146 43.6123Z" fill="#7F0098" stroke="#FFBF00" stroke-width="2" stroke-linecap="round" stroke-linejoin="round"/>
<path d="M286.113 57.3779L289.857 48.9779H291.777L295.533 57.3779H293.493L290.421 49.9619H291.189L288.105 57.3779H286.113ZM287.985 55.5779L288.501 54.1019H292.821L293.349 55.5779H287.985ZM296.404 57.3779V48.9779H300.04C300.792 48.9779 301.44 49.1019 301.984 49.3499C302.528 49.5899 302.948 49.9379 303.244 50.3939C303.54 50.8499 303.688 51.3939 303.688 52.0259C303.688 52.6499 303.54 53.1899 303.244 53.6459C302.948 54.1019 302.528 54.4539 301.984 54.7019C301.44 54.9419 300.792 55.0619 300.04 55.0619H297.484L298.348 54.1859V57.3779H296.404ZM298.348 54.4019L297.484 53.4779H299.932C300.532 53.4779 300.98 53.3499 301.276 53.0939C301.572 52.8379 301.72 52.4819 301.72 52.0259C301.72 51.5619 301.572 51.2019 301.276 50.9459C300.98 50.6899 300.532 50.5619 299.932 50.5619H297.484L298.348 49.6379V54.4019Z" fill="#FFFBC5"/>
<path d="M201.92 56.9971C204.545 60.0502 208.462 51.7988 211.103 52.5626C214.81 53.6283 212.82 51.2764 216.944 50.5288C219.188 51.4644 220.542 50.8457 221.034 48.6354C221.656 47.1727 222.722 46.6317 224.201 47.0287C226.256 45.0738 239.958 51.2114 241.262 47.4745C241.993 45.3606 236.28 40.8471 240.911 39.3519C242.821 38.7332 247.898 40.2899 251.081 39.273C255.713 37.7778 256.748 42.3887 256.174 46.3148C256.907 50.4788 271.451 53.0084 271.261 55.5669C275.433 53.8047 277.484 70.3831 279.519 72.338C279.934 77.2833 286.846 82.3041 287.736 86.9C288.466 90.8423 295.947 91.0977 297.281 87.0102C300.278 77.5689 308.55 75.376 312.942 67.6806C318.292 58.3495 317.272 72.0362 323.35 68.9193C325.802 69.3964 326.693 73.132 328.666 74.4032C332.362 76.7563 337.707 75.5339 340.953 77.9009C336.081 82.9878 350.469 82.2565 351.681 82.3993C357.123 83.0668 361.1 85.1656 365.46 86.6121C365.269 86.532 371.029 87.2157 371.478 88.0574C373.832 92.4303 365.778 110.362 364.06 113C362.757 114.988 360.653 118.787 359.729 120.933C358.68 123.285 354.192 129.423 354.319 131.647C352.124 132.775 351.706 137.26 348.493 136.671C344.895 140.184 338.978 142.474 336.557 147.068C338.948 147.974 346.233 148.276 342.73 152.027C341.776 153.045 341.459 158.45 340.853 159.959C340.185 161.566 335.665 165.507 333.754 166.158C328.981 167.814 330.574 170.959 328.79 175.045C327.706 177.429 328.156 179.097 330.831 180.082C330.735 183.373 329.683 186.554 328.059 189.366C324.525 195.455 317.589 200.764 316.345 208.254C312.555 212.21 215.155 206.838 214.693 205.184C213.039 199.366 216.445 177.317 211.429 172.819C211.208 170.402 176.687 165.507 175.733 163.438C174.768 161.313 201.682 66.2168 201.92 56.9971ZM371.326 88.3928C372.025 89.6652 371.516 87.5199 371.326 88.3928Z" fill="#7F0098" stroke="#FFBF00" stroke-width="2" stroke-linecap="round" stroke-linejoin="round"/>
<path d="M271.227 138.527V130.127H274.863C275.615 130.127 276.263 130.251 276.807 130.499C277.351 130.739 277.771 131.087 278.067 131.543C278.363 131.999 278.511 132.543 278.511 133.175C278.511 133.799 278.363 134.339 278.067 134.795C277.771 135.251 277.351 135.603 276.807 135.851C276.263 136.091 275.615 136.211 274.863 136.211H272.307L273.171 135.335V138.527H271.227ZM273.171 135.551L272.307 134.627H274.755C275.355 134.627 275.803 134.499 276.099 134.243C276.395 133.987 276.543 133.631 276.543 133.175C276.543 132.711 276.395 132.351 276.099 132.095C275.803 131.839 275.355 131.711 274.755 131.711H272.307L273.171 130.787V135.551ZM278.373 138.527L282.117 130.127H284.037L287.793 138.527H285.753L282.681 131.111H283.449L280.365 138.527H278.373ZM280.245 136.727L280.761 135.251H285.081L285.609 136.727H280.245Z" fill="#FFFBC5"/>
<path d="M131.956 26.2201C130.827 23.0243 122.82 19.3838 123.822 15.7909C123.901 15.5216 139.197 22.8176 138.687 19.0506C139.149 20.5934 140.104 21.2435 141.521 21.0067C143.717 19.4964 149.829 25.887 151.07 23.1995C151.579 22.0863 149.144 18.8428 151.93 18.7325C153.123 19.241 153.713 18.9229 153.697 17.7783C154.667 15.7444 157.852 18.0325 159.267 17.8746C160.159 16.6488 171.616 14.3619 169.77 11.9612C171.363 12.4696 175.086 12.8992 175.151 10.1653C180.435 7.78088 176.488 5.04703 178.224 2.78914C180.755 -0.48451 189.604 3.72829 186.74 9.45021C184.448 14.0124 195.016 14.125 193.393 20.3229C192.867 22.2801 190.511 23.4851 189.414 24.9327C188.044 26.7274 187.28 35.6626 187.838 38.3176C189.048 43.993 191.593 48.4113 194.967 52.4337C196.957 54.7868 201.492 55.0584 201.62 57.5056C201.811 60.9243 202.974 64.6763 202.002 68.0602C200.204 74.3567 159.444 103.433 159.444 103.433C159.444 103.433 144.897 42.2134 135.81 40.673C134.375 40.5104 130.031 28.0485 131.956 26.2201Z" fill="#7F0098" stroke="#FFBF00" stroke-width="2" stroke-linecap="round" stroke-linejoin="round"/>
<path d="M159.992 45.5095V37.1095H163.628C164.38 37.1095 165.028 37.2335 165.572 37.4815C166.116 37.7215 166.536 38.0695 166.832 38.5255C167.128 38.9815 167.276 39.5255 167.276 40.1575C167.276 40.7815 167.128 41.3215 166.832 41.7775C166.536 42.2255 166.116 42.5695 165.572 42.8095C165.028 43.0495 164.38 43.1695 163.628 43.1695H161.072L161.936 42.3175V45.5095H159.992ZM165.332 45.5095L163.232 42.4615H165.308L167.432 45.5095H165.332ZM161.936 42.5335L161.072 41.6215H163.52C164.12 41.6215 164.568 41.4935 164.864 41.2375C165.16 40.9735 165.308 40.6135 165.308 40.1575C165.308 39.6935 165.16 39.3335 164.864 39.0775C164.568 38.8215 164.12 38.6935 163.52 38.6935H161.072L161.936 37.7695V42.5335ZM168.816 45.5095V37.1095H172.452C173.204 37.1095 173.852 37.2335 174.396 37.4815C174.94 37.7215 175.36 38.0695 175.656 38.5255C175.952 38.9815 176.1 39.5255 176.1 40.1575C176.1 40.7815 175.952 41.3215 175.656 41.7775C175.36 42.2255 174.94 42.5695 174.396 42.8095C173.852 43.0495 173.204 43.1695 172.452 43.1695H169.896L170.76 42.3175V45.5095H168.816ZM174.156 45.5095L172.056 42.4615H174.132L176.256 45.5095H174.156ZM170.76 42.5335L169.896 41.6215H172.344C172.944 41.6215 173.392 41.4935 173.688 41.2375C173.984 40.9735 174.132 40.6135 174.132 40.1575C174.132 39.6935 173.984 39.3335 173.688 39.0775C173.392 38.8215 172.944 38.6935 172.344 38.6935H169.896L170.76 37.7695V42.5335Z" fill="#FFFBC5"/>
<path d="M12.1289 156.592C13.4655 150.82 17.0776 144.526 21.6766 141.378C26.802 137.864 30.5745 134.75 36.9075 134.318C39.4237 134.145 48.7807 127.643 50.8344 130.854C55.1474 137.546 56.6432 126.513 57.3126 122.699C59.3186 111.477 61.6093 100.269 62.961 88.9338C62.5635 87.3596 60.6215 81.7004 59.6684 80.6185C57.9797 78.7425 54.686 78.1551 54.127 75.3435C53.8108 73.6579 53.4599 66.9179 55.4159 65.9161C59.4767 63.8636 63.0249 65.8673 66.7324 64.8829C63.756 60.1779 67.0834 59.8598 60.303 58.9218C56.3073 58.3809 55.6878 56.0591 57.1209 51.5294C58.3447 47.6985 75.5979 50.3685 79.3053 49.9088C77.5225 50.1155 78.0153 47.031 79.2565 46.872C80.7372 46.6805 81.0882 49.9878 82.935 48.0305C84.4296 46.4111 86.6413 44.6466 88.2812 43.6761C91.1147 41.9929 93.5495 53.215 93.4705 55.091C93.4229 55.9964 93.3113 57.9212 94.8384 57.6983C98.3391 57.1573 99.7419 61.0056 103.291 62.6099C107.682 64.5985 107.858 61.0369 111.454 60.2092C116.452 59.0658 112.28 64.1515 114.223 64.6124C116.07 65.0593 118.647 58.844 119.826 58.144C120.907 57.5253 124.155 57.2699 125.458 56.2843C128.96 53.6782 127.705 54.3271 129.517 54.8843C133.559 56.0928 132.112 45.1713 137.061 46.6816C139.178 46.1406 141.295 43.9652 143.491 43.8688C144.701 43.8189 150.541 46.5237 151.097 47.5221C151.782 49.2228 151.464 50.7667 150.175 52.1493C152.006 53.8035 153.311 55.8049 154.075 58.1417C155.125 61.4641 152.58 66.0438 154.758 68.9366C154.502 76.6622 160.346 78.0924 154.298 83.5601C154.521 83.3535 162.097 91.764 162.574 92.8923C163.702 92.067 167.3 93.8779 167.666 94.6743C165.739 90.4615 168.301 74.835 175.369 82.0034C183.74 90.5091 181.751 77.8068 186.001 71.9886C189.295 67.4902 202.966 68.3481 202.361 75.7568C201.104 79.5563 209.65 92.3061 213.597 89.0325C216.223 95.6924 221.603 94.0068 225.692 98.3786C231.612 104.722 230.771 102.321 238.84 101.685C236.215 105.866 234.859 107.266 232.713 111.97C229.053 119.936 225.565 127.962 222.016 135.975C219.183 142.365 204.765 163.221 209.109 168.992C214.695 176.416 219.963 204.031 222.27 203.741C215.109 203.44 166.392 191.407 162.239 194.333C160.55 195.509 99.9139 206.525 97.271 206.892C89.8688 207.908 76.2464 198.45 69.7042 195.125C59.708 190.04 50.3997 184.7 39.3842 182.298C27.4342 179.675 15.4017 176.734 4.6593 170.676C5.20555 167.45 14.8659 166.305 12.1289 156.592Z" fill="#7F0098" stroke="#FFBF00" stroke-width="2" stroke-linecap="round" stroke-linejoin="round"/>
<path d="M115.545 134.517L119.289 126.117H121.209L124.965 134.517H122.925L119.853 127.101H120.621L117.537 134.517H115.545ZM117.417 132.717L117.933 131.241H122.253L122.781 132.717H117.417ZM125.836 134.517V126.117H127.444L131.021 132.045H130.169L133.685 126.117H135.281L135.305 134.517H133.481L133.469 128.913H133.805L130.997 133.629H130.121L127.252 128.913H127.661V134.517H125.836Z" fill="#FFFBC5"/>
<path d="M4.66512 170.676C19.2591 179.434 36.6541 180.389 52.4115 186C67.2903 195.362 84.1146 200.911 99.6163 209.069C96.3226 210.468 90.7986 214.156 88.0139 216.492C84.6086 219.337 86.503 218.861 82.6351 218.764C79.2298 218.684 78.0362 224.122 74.2636 224.869C70.7781 225.569 65.941 222.596 61.485 222.899C59.271 223.057 47.5744 222.834 46.7945 223.599C47.1583 219.371 46.3471 215.126 46.6027 210.898C46.7143 209.228 48.9249 203.314 48.0497 202.249C40.1234 205.904 38.3579 210.595 28.6022 210.39C26.1197 210.341 25.6246 207.497 25.0214 205.745C23.5721 201.598 16.6325 201.773 12.7495 201.359C20.0704 197.401 9.13851 187.545 6.68738 183.158C6.08303 182.092 2.51733 177.754 2.46968 176.243C2.3244 172.567 8.10064 174.65 4.66512 170.676Z" fill="#7F0098" stroke="#FFBF00" stroke-width="2" stroke-linecap="round" stroke-linejoin="round"/>
<path d="M55.8125 210.991L59.5565 202.591H61.4765L65.2325 210.991H63.1925L60.1205 203.575H60.8885L57.8045 210.991H55.8125ZM57.6845 209.191L58.2005 207.715H62.5205L63.0485 209.191H57.6845ZM70.0068 211.135C69.3588 211.135 68.7548 211.031 68.1948 210.823C67.6428 210.607 67.1628 210.303 66.7548 209.911C66.3468 209.519 66.0268 209.059 65.7948 208.531C65.5708 208.003 65.4588 207.423 65.4588 206.791C65.4588 206.159 65.5708 205.579 65.7948 205.051C66.0268 204.523 66.3468 204.063 66.7548 203.671C67.1708 203.279 67.6548 202.979 68.2068 202.771C68.7588 202.555 69.3628 202.447 70.0188 202.447C70.7468 202.447 71.4028 202.575 71.9868 202.831C72.5788 203.079 73.0748 203.447 73.4748 203.935L72.2268 205.087C71.9388 204.759 71.6188 204.515 71.2668 204.355C70.9148 204.187 70.5308 204.103 70.1148 204.103C69.7228 204.103 69.3628 204.167 69.0348 204.295C68.7068 204.423 68.4228 204.607 68.1828 204.847C67.9428 205.087 67.7548 205.371 67.6188 205.699C67.4908 206.027 67.4268 206.391 67.4268 206.791C67.4268 207.191 67.4908 207.555 67.6188 207.883C67.7548 208.211 67.9428 208.495 68.1828 208.735C68.4228 208.975 68.7068 209.159 69.0348 209.287C69.3628 209.415 69.7228 209.479 70.1148 209.479C70.5308 209.479 70.9148 209.399 71.2668 209.239C71.6188 209.071 71.9388 208.819 72.2268 208.483L73.4748 209.635C73.0748 210.123 72.5788 210.495 71.9868 210.751C71.4028 211.007 70.7428 211.135 70.0068 211.135Z" fill="#FFFBC5"/>
<path d="M97.2756 207.461C98.3577 205.634 103.483 202.042 104.612 202.056C106.186 201.978 107.716 202.216 109.212 202.756C112.712 204.428 111.581 201.438 115.419 202.613C113.938 199.958 119.827 199.197 118.743 202.247C122.309 202.534 121.91 196.811 126.493 196.304C131.651 195.714 132.367 195.554 134.77 191.04C134.927 190.755 137.824 184.634 137.969 185.207C140.515 177.672 154.92 184.188 156.143 189.102C156.605 190.977 158.275 192.743 160.376 194.174C161.824 195.174 167.73 189.531 167.505 195.699C166.599 197.178 198.494 204.587 202.378 218.083C206.817 233.566 183.293 255.425 181.257 257.602C176.068 258.985 178.887 259.606 173.586 257.776C170.594 256.761 166.122 258.921 163.033 258.112C160.233 257.363 159.499 253.518 156.222 252.676C152.672 251.77 149.92 250.592 147.327 248.113C142.63 243.614 136.886 245.043 130.504 243.693C128.371 243.596 123.469 235.823 121.352 237.509C119.236 237 115.098 226.952 117.404 224.502C117.548 222.564 117.102 220.783 116.052 219.131C114.907 216.062 117.262 213.297 117.055 210.069C116.609 203.01 115.861 207.764 113.125 207.86C110.055 207.988 100.317 209.131 97.2756 207.461Z" fill="#7F0098" stroke="#FFBF00" stroke-width="2" stroke-linecap="round" stroke-linejoin="round"/>
<path d="M138.731 223.045V214.645H142.367C143.119 214.645 143.767 214.769 144.311 215.017C144.855 215.257 145.275 215.605 145.571 216.061C145.867 216.517 146.015 217.061 146.015 217.693C146.015 218.317 145.867 218.857 145.571 219.313C145.275 219.761 144.855 220.105 144.311 220.345C143.767 220.585 143.119 220.705 142.367 220.705H139.811L140.675 219.853V223.045H138.731ZM144.071 223.045L141.971 219.997H144.047L146.171 223.045H144.071ZM140.675 220.069L139.811 219.157H142.259C142.859 219.157 143.307 219.029 143.603 218.773C143.899 218.509 144.047 218.149 144.047 217.693C144.047 217.229 143.899 216.869 143.603 216.613C143.307 216.357 142.859 216.229 142.259 216.229H139.811L140.675 215.305V220.069ZM151.635 223.189C150.971 223.189 150.355 223.081 149.787 222.865C149.227 222.649 148.739 222.345 148.323 221.953C147.915 221.561 147.595 221.101 147.363 220.573C147.139 220.045 147.027 219.469 147.027 218.845C147.027 218.221 147.139 217.645 147.363 217.117C147.595 216.589 147.919 216.129 148.335 215.737C148.751 215.345 149.239 215.041 149.799 214.825C150.359 214.609 150.967 214.501 151.623 214.501C152.287 214.501 152.895 214.609 153.447 214.825C154.007 215.041 154.491 215.345 154.899 215.737C155.315 216.129 155.639 216.589 155.871 217.117C156.103 217.637 156.219 218.213 156.219 218.845C156.219 219.469 156.103 220.049 155.871 220.585C155.639 221.113 155.315 221.573 154.899 221.965C154.491 222.349 154.007 222.649 153.447 222.865C152.895 223.081 152.291 223.189 151.635 223.189ZM151.623 221.533C151.999 221.533 152.343 221.469 152.655 221.341C152.975 221.213 153.255 221.029 153.495 220.789C153.735 220.549 153.919 220.265 154.047 219.937C154.183 219.609 154.251 219.245 154.251 218.845C154.251 218.445 154.183 218.081 154.047 217.753C153.919 217.425 153.735 217.141 153.495 216.901C153.263 216.661 152.987 216.477 152.667 216.349C152.347 216.221 151.999 216.157 151.623 216.157C151.247 216.157 150.899 216.221 150.579 216.349C150.267 216.477 149.991 216.661 149.751 216.901C149.511 217.141 149.323 217.425 149.187 217.753C149.059 218.081 148.995 218.445 148.995 218.845C148.995 219.237 149.059 219.601 149.187 219.937C149.323 220.265 149.507 220.549 149.739 220.789C149.979 221.029 150.259 221.213 150.579 221.341C150.899 221.469 151.247 221.533 151.623 221.533Z" fill="#FFFBC5"/>
<path d="M165.727 200.182C170.376 199.815 163.533 192.692 171.538 193.521C180.736 194.459 190.477 193.902 199.756 193.774C201.649 193.759 210.102 195.269 208.35 191.646C206.965 188.799 210.467 184.188 208.844 180.357C211.2 179.354 210.342 175.937 211.9 174.428C213.238 173.125 216.753 182.838 217.055 183.505C218.33 186.35 217.518 189.864 219.301 192.39C220.94 194.697 224.617 194.87 226.145 197.335C229.79 203.297 238.749 202.137 246.054 202.741C269.483 204.663 292.957 205.839 316.352 208.257C312.308 217.269 311.704 225.568 310.399 234.437C309.891 237.887 312.565 242.752 310.334 246.121C312.595 247.615 311.899 249.317 311.989 251.24C313.327 280.411 288.246 321.108 272.999 319.231C260.314 317.641 220.35 319.298 218.458 315.288C217.104 310.71 211.327 312.203 208.701 307.623C206.027 302.92 209.496 300.311 209.558 295.733C201.426 296.433 193.182 295.288 185.033 295.357C185.954 289.534 180.703 284.575 181.629 279.327C182.232 275.815 184.797 275.942 182.712 271.445C181.31 268.439 182.408 266.514 181.899 264.036C181.563 262.428 180.688 261.858 179.431 261.222C176.024 259.489 180.879 258.343 181.82 256.992C183.826 254.13 185.654 243.765 189.427 243.512C190.844 241.191 187.357 239.283 187.724 237.057C183.189 232.892 188.312 231.667 188.153 227.789C187.978 223.578 176.933 223.21 173.909 223.434C171.793 223.594 169.134 224.087 167.066 223.325C167.639 219.238 166.46 216.297 166.444 212.626C166.428 209.972 167.941 206.616 167.415 203.977C167.289 203.266 165.378 201.055 165.727 200.182Z" fill="#FFFBC5" stroke="#FFBF00" stroke-width="2" stroke-linecap="round" stroke-linejoin="round"/>
<path d="M213.333 340.153C215.815 334.971 217.025 329.248 219.507 324.353C221.496 320.471 214.78 315.546 216.69 312.969C216.722 312.939 219.873 317.196 221.243 317.293C224.967 315.512 226.83 314.656 229.36 311.224C232.399 307.056 241.949 307.725 245.69 310.87C247.153 312.078 249.256 313.316 251.115 313.858C254.792 314.942 257.96 310.36 261.063 312.845C265.391 316.306 266.439 310.683 270.198 308.771C272.459 307.596 268.143 318.598 267.59 317.804C270.453 318.917 272.57 318.85 275.516 318.917C279.589 319.011 277.614 320.316 278.348 322.793C278.889 324.609 311.992 315.832 312.535 323.464C312.886 327.918 311.388 395.221 311.388 395.221C311.388 395.221 265.443 401.644 263.038 401.357C258.518 400.786 258.869 397.607 253.667 400.274C251.31 400.656 246.679 401.673 247.65 397.478C245.31 392.423 247.521 380.5 242.014 377.641C240.612 376.876 233.772 374.901 233.293 375.383C231.318 377.446 228.947 377.196 226.179 376.684C222.804 376.716 219.637 374.811 216.599 375.288C211.743 376.049 215.898 371.821 214.687 371.184C215.77 367.879 216.327 359.678 215.213 357.421C215.022 357.037 211.122 349.025 212.253 348.008C216.945 343.812 212.329 345.817 213.333 340.153Z" fill="#FFFBC5" stroke="#FFBF00" stroke-width="2" stroke-linecap="round" stroke-linejoin="round"/>
<path d="M276.755 312.272C277.485 308.901 278.888 303.686 282.228 302.096C283.408 300.188 284.267 296.121 284.872 295.611C287.671 293.003 289.392 291.22 292.578 290.206C296.905 288.808 296.457 284.005 298.21 280.728C299.958 277.425 303.714 279.393 305.116 276.802C306.835 273.512 305.977 269.65 307.66 266.5C311.033 260.08 309.824 246.344 317.72 242.625C312.051 251.495 322.018 248.395 326.089 253.594C328.731 255.611 328.604 251.479 329.239 250.047C331.119 245.946 332.584 252.656 334.492 248.268C334.972 248.697 339.299 254.96 338.475 254.77C338.441 253.689 338.854 253.135 339.68 253.1C339.806 253.72 339.999 254.276 340.38 254.786C339.68 254.483 351.65 254.676 350.631 256.567C351.049 255.804 349.931 252.957 350.888 252.576C352.095 252.099 355.503 254.164 358.269 253.084C359.483 252.623 367.438 249.826 367.184 248.809C368.076 249.859 368.651 251.908 370.497 250.302C367.438 252.941 367.503 255.486 371.959 254.737C369.796 256.407 368.651 259.777 369.19 262.337C369.605 264.245 373.551 269.271 373.233 270.175C371.164 270.54 373.932 276.487 370.53 277.23C366.833 278.044 365.913 270.811 365.533 278.029C365.342 279.747 364.258 279.968 362.316 278.698C358.494 279.077 361.678 281.24 361.013 283.211C359.865 286.58 364.258 290.684 358.211 291.063C354.043 291.317 355.094 292.62 355.094 287.884C355.061 282.575 341.084 283.655 343.218 288.488C337.522 295.866 357.223 288.11 354.455 295.866C352.929 300.221 372.852 328.615 366.549 325.37C364.289 324.226 307.503 337.294 308.458 339.423C302.633 336.943 294.74 330.204 288.246 329.948C287.737 327.407 284.041 328.457 282.325 328.168C277.997 327.467 283.533 324.417 282.58 323.398C280.384 321.174 277.487 325.437 278.41 319.902C278.887 317.041 275.927 315.197 276.755 312.272Z" fill="#FFFBC5" stroke="#FFBF00" stroke-width="2" stroke-linecap="round" stroke-linejoin="round"/>
<path d="M258.691 420.436C260.791 417.954 260.886 414.77 261.508 411.754C261.858 410.067 262.049 402.63 263.099 401.613C265.772 400.819 265.772 397.765 266.267 395.572C266.983 392.393 269.546 392.138 270.898 389.052C275.975 377.548 316.163 377.99 324.913 378.341C330.327 378.565 343.247 418.464 345.735 417.571C343.727 420.114 339.048 427.937 335.961 428.001C331.25 428.067 319.44 445.042 319.44 445.042C319.44 445.042 276.056 431.054 272.618 431.942C268.114 430.26 269.482 424.407 265.582 422.404C263.849 421.515 259.008 425.203 258.691 420.436Z" fill="#FFFBC5" stroke="#FFBF00" stroke-width="2" stroke-linecap="round" stroke-linejoin="round"/>
<path d="M268.923 443.961C270.863 440.086 268.593 431.754 274.238 431.692C281.945 431.566 290.089 435.824 297.95 436.206C299.48 436.269 304.029 438.717 303.013 434.871C301.741 430.037 307.598 432.708 309.603 431.18C312.246 429.179 319.118 426.414 322.749 429.593C324.403 431.693 346.052 423.33 338.188 434.174C336.598 435.793 339.017 446.699 338.73 446.635C334.721 451.787 340.736 460.178 332.807 464.436C329.435 466.219 324.341 473.466 321.603 476.038C321.288 476.358 271.834 442.753 268.923 443.961Z" fill="#FFFBC5" stroke="#FFBF00" stroke-width="2" stroke-linecap="round" stroke-linejoin="round"/>
<path d="M222.675 482.179C223.279 479.064 231.252 472.418 233.689 470.163C234.119 469.747 243.683 458.462 244.351 460.494C242.839 455.979 247.584 458.65 248.904 454.9C249.206 454.295 257.086 449.304 257.166 449.334C258.835 449.112 264.977 445.044 265.791 445.553C267.19 443.199 276.166 443.836 275.848 444.596C277.202 444.155 278.502 443.578 279.713 442.879C279.97 441.926 305.815 451.624 307.977 456.265C310.91 462.464 322.176 459.541 323.26 462.723C323.384 463.043 316.509 473.565 318.739 473.372C317.595 473.465 322.463 470.034 323.195 473.847C319.949 478.048 317.849 482.941 315.558 487.712C311.263 496.551 305.247 502.531 297.095 507.935C288.502 513.625 288.566 521.796 281.688 528.474C272.284 537.693 269.881 527.807 276.946 521.796C281.369 518.046 250.765 498.874 247.219 495.408C244.989 493.246 244.448 495.726 242.315 496.743C239.355 498.141 240.087 493.467 238.145 491.782C235.472 489.462 232.575 485.422 229.153 484.028C225.111 482.441 222.627 490 218.633 484.981C220.271 484.47 221.624 483.516 222.675 482.179Z" fill="#FFFBC5" stroke="#FFBF00" stroke-width="2" stroke-linecap="round" stroke-linejoin="round"/>
<path d="M278.536 381.965C282.325 376.908 289.647 376.116 291.937 369.437C293.528 364.861 296.457 359.201 299.068 354.304C300.882 350.871 308.074 346.037 311.291 344.262C311.736 344.035 349.614 337.137 360.376 342.288C383.928 353.576 390.614 381.617 392.749 380.949C397.872 379.295 398.955 385.335 395.196 386.162C393.158 386.641 387.62 387.879 387.653 390.108C387.685 394.11 388.259 391.982 384.247 394.332C381.703 392.684 380.365 399.104 378.711 398.309C373.747 395.704 370.624 401.745 367.951 400.536C362.988 398.309 348.217 415.734 345.128 418.339C345.412 418.086 343.793 416.622 343.283 415.222C342.742 413.633 340.194 415.669 338.605 415.317C337.459 415.094 340.64 410.582 335.929 410.07C334.338 409.88 331.567 410.422 330.2 410.167C326.826 409.532 330.326 407.37 329.69 405.684C328.45 402.218 326.188 399.96 325.33 396.654C324.726 394.396 325.522 387.911 321.129 388.069C320.143 384.638 313.426 386.385 310.592 385.908C310.404 386.097 300.311 382.792 298.878 382.792C297 382.758 290.986 378.849 290.602 382.474C288.626 381.77 279.205 382.727 278.536 381.965Z" fill="#FFFBC5" stroke="#FFBF00" stroke-width="2" stroke-linecap="round" stroke-linejoin="round"/>
<path d="M305.942 343.367C303.971 337.454 323.993 320.287 327.843 327.787C334.271 319.235 346.306 329.631 350.824 323.209C351.972 321.622 354.328 321.522 355.153 319.776C355.532 318.951 354.58 316.534 355.088 315.263C356.679 311.318 349.424 312.529 354.961 307.597C360.246 302.892 352.733 302.096 353.562 298.095C354.674 292.75 355.662 292.623 360.085 291.098C362.344 290.299 361.138 281.495 360.182 281.207C360.056 278.074 362.476 278.252 364.577 279.33C367.12 279.174 364.257 275.041 365.69 274.405C365.275 274.58 372.15 276.725 372.342 276.79C373.488 277.206 371.738 280.893 371.26 281.368C380.81 278.634 388.129 267.682 398.316 268.317C404.107 268.684 397.936 273.354 404.553 274.753C405.348 276.185 408.435 273.529 409.265 273.373C412.607 272.75 415.692 277.185 418.686 277.884C421.36 282.037 427.406 278.507 430.654 281.368C432.694 283.212 433.197 285.311 434.601 287.535C436.128 289.917 439.087 286.995 441.256 287.409C445.042 288.17 448.608 289.761 452.109 291.731C454.654 293.129 453.002 295.421 451.472 297.039C450.583 297.963 447.684 304.196 448.419 303.59C445.934 305.658 445.365 301.653 444.471 306.799C443.741 311.064 444.661 312.271 448.131 314.942C453.827 318.691 440.268 318.564 440.332 319.01C440.588 319.708 437.025 367.72 435.875 367.974C428.045 369.788 419.008 374.14 410.604 376.114C395.802 379.579 382.368 380.5 376.352 381.519C376.352 383.205 370.114 389.497 366.452 382.981C366.452 382.981 362.918 374.524 363.173 374.589C363.295 374.558 365.658 368.197 365.781 367.465C366.674 363.397 359.922 366.577 359.1 364.925C358.079 362.823 356.359 359.612 356.582 357.23C358.557 355.832 358.526 354.464 356.489 353.095C355.281 351.824 355.089 350.422 355.884 348.833C353.177 347.18 352.322 345.718 349.262 345.975C347.543 346.135 344.549 350.233 342.862 346.705C343.883 349.152 337.995 347.597 336.942 348.516C334.206 347.12 334.875 350.87 334.171 352.078C334.012 352.334 332.993 348.707 332.934 348.641C331.598 347.277 329.718 353.476 328.86 348.577C329.75 343.812 323.448 345.432 319.946 345.176C314.474 344.766 313.519 343.303 308.489 345.908C306.072 347.148 305.309 345.653 305.942 343.367Z" fill="#FFFBC5" stroke="#FFBF00" stroke-width="2" stroke-linecap="round" stroke-linejoin="round"/>
<path d="M387.304 389.946C385.839 386.733 397.077 384.38 396.473 382.157C392.781 379.993 391.125 383.489 388.768 378.722C393.735 377.925 399.847 373.509 404.843 374.587C405.48 374.332 410.54 372.552 410.607 374.781C413.566 372.963 416.975 371.981 420.027 370.326C422.637 368.926 421.11 360.786 424.356 359.132C431.392 355.507 425.981 361.263 432.569 362.567C439.412 363.966 438.839 364.285 439.125 370.771C439.412 377.321 428.94 375.857 426.267 380.945C425.059 383.265 428.24 387.176 422.353 386.637C417.485 386.157 410.001 389.37 411.561 382.945C410.354 382.852 409.399 383.294 408.698 384.25C408.698 384.25 408.82 387.462 407.838 387.432C406.947 387.367 398.955 388.702 399.18 387.969C400.805 387.552 402.328 387.175 403.986 387.047C402.049 386.22 400.549 384.913 398.29 386.883C398.83 387.109 393.377 386.783 394.363 386.751C393.757 388.756 389.93 387.563 389.855 390.286C391.756 390.502 388.513 395.728 387.304 389.946Z" fill="#FFFBC5" stroke="#FFBF00" stroke-width="2" stroke-linecap="round" stroke-linejoin="round"/>
<path d="M427.09 356.751C428.303 354.431 426.744 350.423 429.23 349.407C433.526 347.721 433.713 348.865 436.134 344.195C437.026 342.381 440.782 337.454 439.444 335.1C438.934 334.212 435.721 330.905 435.625 330.398C436.834 330.109 438.042 330.144 439.255 330.461C440.842 329.702 431.741 318.25 441.739 321.111C440.339 320.351 439.955 319.527 440.655 318.633C445.72 318.473 456.759 318.664 455.584 326.455C454.914 330.907 456.668 335.833 454.914 340.158C454.66 340.826 448.102 350.552 448.137 350.552C449.281 354.37 442.116 357.294 441.101 360.031C439.575 364.163 438.619 363.528 434.576 363.017C432.67 362.699 430.854 362.126 429.072 361.333C429.066 359.61 429.769 357.008 427.09 356.751Z" fill="#FFFBC5" stroke="#FFBF00" stroke-width="2" stroke-linecap="round" stroke-linejoin="round"/>
<path d="M340.321 284.038C340.321 284.038 355.347 280.668 356.81 284.038C358.243 287.408 357.576 296.439 355.155 297.392C352.738 298.378 338.54 295.296 338.857 293.546C339.207 291.764 340.321 284.038 340.321 284.038Z" fill="#FFFBC5" stroke="#FFBF00" stroke-width="2" stroke-linecap="round" stroke-linejoin="round"/>
<path d="M467.135 162.029C469.554 158.452 486.65 154.112 489.354 156.671C489.354 158.897 497.79 158.628 501.13 159.819C500.559 163.346 515.835 161.598 517.876 162.441C519.527 163.125 522.33 176.352 519.527 176.606C518.511 175.301 517.106 174.587 515.359 174.476C511.923 174.445 512.4 176.639 510.265 178.084C507.213 180.135 502.629 180.309 499.157 180.532C498.969 181.962 494.574 185.684 493.045 186.239C489.416 187.573 489.957 183.073 487.123 182.058C487.952 180.753 491.867 176.018 491.453 174.854C489.799 170.39 477.447 181.262 474.041 178.924C472.419 177.795 466.815 180.658 470.001 175.92C471.783 173.266 465.767 164.111 467.135 162.029Z" fill="#FFFBC5" stroke="#FFBF00" stroke-width="2" stroke-linecap="round" stroke-linejoin="round"/>
</svg>
