<?xml version="1.0" encoding="UTF-8"?><svg id="Camada_2" xmlns="http://www.w3.org/2000/svg" viewBox="0 0 1032 490.2"><defs><style>.cls-1{fill-rule:evenodd;}.cls-1,.cls-2{fill:#ffbf00;}.cls-3{isolation:isolate;}.cls-4{fill:#7f0098;}</style></defs><g id="formas"><g id="Camada_9"><path class="cls-1" d="M765.7,427.22l-15.79-5.64-9.76-13.63c-4.87-6.81-14.94-7-20.07-.37l-10.25,13.27-15.99,5.06c-7.99,2.53-11.28,12.04-6.55,18.95l9.46,13.84-.13,16.76c-.06,8.37,7.97,14.44,16.01,12.08l16.1-4.71,15.91,5.3c7.95,2.65,16.2-3.12,16.45-11.49l.49-16.76,9.96-13.49c4.98-6.74,2.04-16.36-5.85-19.18Z"/></g><g id="Camada_10"><path class="cls-1" d="M665.66,439.58l-15.99-27.47c-2.23-3.82-6.34-6.18-10.79-6.18h-31.99c-4.45,0-8.56,2.36-10.79,6.18l-15.99,27.47c-2.23,3.82-2.23,8.53,0,12.35l15.99,27.47c2.23,3.82,6.34,6.18,10.79,6.18h31.99c4.45,0,8.57-2.35,10.79-6.18l15.99-27.47c2.23-3.82,2.23-8.53,0-12.35Z"/></g><g id="Camada_11"><path class="cls-2" d="M486.08,401.31h60.26c7.9,0,14.32,6.42,14.32,14.32v60.26c0,7.9-6.42,14.32-14.32,14.32h-60.26c-7.9,0-14.32-6.42-14.32-14.32v-60.26c0-7.9,6.42-14.32,14.32-14.32Z"/></g><g id="Camada_12"><path class="cls-1" d="M448.53,428.22l-31.23-22.48c-4.63-3.33-10.9-3.33-15.53,0l-31.23,22.48c-4.63,3.33-6.57,9.24-4.8,14.63l11.93,36.37c1.77,5.39,6.84,9.04,12.57,9.04h38.61c5.72,0,10.8-3.65,12.56-9.04l11.93-36.37c1.77-5.39-.17-11.3-4.8-14.63Z"/></g><g id="Camada_13"><path class="cls-1" d="M301.05,401.31c-23.06,0-43.05,19.9-43.05,44.45s19.99,44.45,43.05,44.45c26.27,0,46.26-19.9,46.26-44.45s-19.99-44.45-46.26-44.45Z"/></g></g><g id="com_a"><g class="cls-3"><path class="cls-4" d="M361.2,32.06c0-18.54,14.15-32.06,33.23-32.06,9.67,0,18.09,3.31,23.82,9.76l-5.82,5.64c-4.84-5.11-10.75-7.43-17.64-7.43-14.15,0-24.63,10.21-24.63,24.09s10.48,24.09,24.63,24.09c6.9,0,12.81-2.42,17.64-7.52l5.82,5.64c-5.73,6.45-14.15,9.85-23.91,9.85-18.99,0-33.14-13.52-33.14-32.06Z"/><path class="cls-4" d="M424.61,32.06c0-18.36,14.15-32.06,33.41-32.06s33.23,13.61,33.23,32.06-14.15,32.06-33.23,32.06-33.41-13.7-33.41-32.06ZM482.28,32.06c0-13.88-10.39-24.09-24.27-24.09s-24.45,10.21-24.45,24.09,10.39,24.09,24.45,24.09,24.27-10.21,24.27-24.09Z"/><path class="cls-4" d="M563.06,63.41l-.09-45.68-22.66,38.06h-4.12l-22.66-37.79v45.41h-8.6V.72h7.34l26.15,44.06L564.23.72h7.34l.09,62.69h-8.6Z"/><path class="cls-4" d="M654.5,47.73h-33.32l-6.9,15.67h-9.23L633.46.72h8.87l28.48,62.69h-9.4l-6.9-15.67ZM651.37,40.57l-13.52-30.72-13.52,30.72h27.05Z"/></g></g><g id="bronquiolite"><g class="cls-3"><path class="cls-4" d="M86.82,181.51c0,15.35-12.96,24.28-37.23,24.28H.04v-88.05h47.04c24.28,0,35.6,9.69,35.6,23.02,0,8.18-4.15,14.97-12.2,18.99,10.31,3.77,16.35,11.32,16.35,21.76ZM29.22,138.49v13.08h13.84c6.67,0,9.68-2.26,9.68-6.54s-3.02-6.54-9.68-6.54h-13.84ZM56.89,178.11c0-4.53-3.27-6.92-9.81-6.92h-17.86v13.84h17.86c6.54,0,9.81-2.39,9.81-6.92Z"/><path class="cls-4" d="M134.99,183.65h-8.05v22.14h-29.68v-88.05h42.39c24.53,0,40.12,12.83,40.12,33.21,0,12.7-6.04,22.26-16.6,27.67l18.49,27.17h-31.7l-14.97-22.14ZM137.76,140.63h-10.82v20.63h10.82c8.18,0,12.07-3.9,12.07-10.31s-3.9-10.31-12.07-10.31Z"/><path class="cls-4" d="M187.43,161.76c0-26.67,21.01-46.04,49.68-46.04s49.68,19.37,49.68,46.04-21.01,46.03-49.68,46.03-49.68-19.37-49.68-46.03ZM256.86,161.76c0-13.71-8.81-22.01-19.75-22.01s-19.75,8.3-19.75,22.01,8.8,22.01,19.75,22.01,19.75-8.3,19.75-22.01Z"/><path class="cls-4" d="M384.39,117.74v88.05h-24.4l-33.46-40v40h-28.93v-88.05h24.4l33.46,40v-40h28.93Z"/><path class="cls-4" d="M499.34,216.85c-6.16,7.3-15.09,11.19-25.66,11.19-15.6,0-25.28-4.91-41.13-21.51-22.14-4.65-37.36-22.14-37.36-44.78,0-26.67,21.01-46.04,49.68-46.04s49.68,19.37,49.68,46.04c0,19.5-11.19,35.09-28.43,42.01,2.64,2.77,5.03,3.65,8.18,3.65,4.28,0,8.55-2.01,12.2-5.66l12.83,15.09ZM425.13,161.76c0,13.71,8.8,22.01,19.75,22.01s19.75-8.3,19.75-22.01-8.81-22.01-19.75-22.01-19.75,8.3-19.75,22.01Z"/><path class="cls-4" d="M504.62,166.16v-48.43h29.68v47.54c0,13.46,5.16,18.49,13.46,18.49s13.46-5.03,13.46-18.49v-47.54h29.18v48.43c0,26.41-15.85,41.63-42.89,41.63s-42.89-15.22-42.89-41.63Z"/><path class="cls-4" d="M603.98,117.74h29.68v88.05h-29.68v-88.05Z"/><path class="cls-4" d="M644.47,161.76c0-26.67,21.01-46.04,49.68-46.04s49.68,19.37,49.68,46.04-21.01,46.03-49.68,46.03-49.68-19.37-49.68-46.03ZM713.9,161.76c0-13.71-8.8-22.01-19.75-22.01s-19.75,8.3-19.75,22.01,8.8,22.01,19.75,22.01,19.75-8.3,19.75-22.01Z"/><path class="cls-4" d="M754.65,117.74h29.68v65.03h39.75v23.02h-69.43v-88.05Z"/><path class="cls-4" d="M832.24,117.74h29.68v88.05h-29.68v-88.05Z"/><path class="cls-4" d="M895.38,140.75h-25.79v-23.02h81.25v23.02h-25.79v65.03h-29.68v-65.03Z"/><path class="cls-4" d="M1031.72,183.39v22.39h-73.2v-88.05h71.57v22.39h-42.39v10.31h37.23v21.38h-37.23v11.57h44.02Z"/></g></g><g id="nao_se_brinca"><g class="cls-3"><path class="cls-4" d="M82.53,259.57v88.05h-7.67l-56.6-71.44v71.44h-9.31v-88.05h7.67l56.73,71.44v-71.44h9.18Z"/><path class="cls-4" d="M166.42,324.09h-49.06l-10.56,23.52h-9.69l40.25-88.05h9.18l40.25,88.05h-9.81l-10.56-23.52ZM163.02,316.54l-21.13-47.29-21.13,47.29h42.26ZM127.55,251.14h-5.41c.25-8.43,4.65-13.84,11.32-13.84,7.8,0,11.57,8.55,16.48,8.55,3.77,0,6.29-3.02,6.54-7.8h5.41c-.25,8.18-4.65,13.58-11.32,13.58-7.8,0-11.44-8.55-16.48-8.55-3.77,0-6.29,3.02-6.54,8.05Z"/><path class="cls-4" d="M192.32,303.59c0-25.66,19.62-44.78,46.29-44.78s46.16,18.99,46.16,44.78-19.75,44.78-46.16,44.78-46.29-19.12-46.29-44.78ZM275.46,303.59c0-21.01-15.72-36.48-36.85-36.48s-37.1,15.47-37.1,36.48,15.85,36.48,37.1,36.48,36.85-15.47,36.85-36.48Z"/><path class="cls-4" d="M330.17,336.92l3.65-7.17c6.29,6.16,17.48,10.69,29.05,10.69,16.48,0,23.65-6.92,23.65-15.6,0-24.15-54.21-9.31-54.21-41.89,0-12.96,10.06-24.15,32.45-24.15,9.94,0,20.25,2.89,27.29,7.8l-3.14,7.42c-7.55-4.91-16.35-7.29-24.15-7.29-16.1,0-23.27,7.17-23.27,15.97,0,24.15,54.21,9.56,54.21,41.63,0,12.96-10.31,24.02-32.83,24.02-13.21,0-26.16-4.65-32.7-11.44Z"/><path class="cls-4" d="M478.21,339.56v8.05h-62.26v-88.05h60.37v8.05h-51.07v31.32h45.53v7.92h-45.53v32.7h52.95Z"/><path class="cls-4" d="M606.62,324.09c0,14.97-11.07,23.52-33.08,23.52h-40.5v-88.05h37.99c19.62,0,30.94,8.3,30.94,22.64,0,10.06-5.41,16.73-13.46,20,11.32,2.52,18.11,9.94,18.11,21.89ZM542.35,267.24v31.95h28.05c14.09,0,22.26-5.41,22.26-15.97s-8.18-15.97-22.26-15.97h-28.05ZM597.32,323.34c0-11.44-8.43-16.48-23.9-16.48h-31.07v33.08h31.07c15.47,0,23.9-5.03,23.9-16.6Z"/><path class="cls-4" d="M688,347.61l-20.12-28.3c-2.26.25-4.53.38-7.04.38h-23.65v27.92h-9.31v-88.05h32.95c22.39,0,35.97,11.32,35.97,30.19,0,13.84-7.29,23.52-20.12,27.67l21.51,30.19h-10.19ZM687.5,289.75c0-14.09-9.31-22.14-26.92-22.14h-23.39v44.15h23.39c17.61,0,26.92-8.18,26.92-22.01Z"/><path class="cls-4" d="M718.81,259.57h9.31v88.05h-9.31v-88.05Z"/><path class="cls-4" d="M830.37,259.57v88.05h-7.67l-56.6-71.44v71.44h-9.31v-88.05h7.67l56.73,71.44v-71.44h9.18Z"/><path class="cls-4" d="M851.25,303.59c0-25.78,19.62-44.78,46.16-44.78,12.83,0,24.4,4.28,32.2,12.83l-5.91,5.91c-7.17-7.3-15.97-10.44-26.04-10.44-21.26,0-37.23,15.6-37.23,36.48s15.98,36.48,37.23,36.48c10.06,0,18.87-3.14,26.04-10.57l5.91,5.91c-7.8,8.55-19.37,12.96-32.33,12.96-26.41,0-46.04-18.99-46.04-44.78Z"/><path class="cls-4" d="M1002.43,324.09h-49.05l-10.57,23.52h-9.68l40.25-88.05h9.18l40.25,88.05h-9.81l-10.56-23.52ZM999.04,316.54l-21.13-47.29-21.13,47.29h42.26Z"/></g></g><g id="linhas_2"><rect class="cls-2" y="437.69" width="206.4" height="16.12"/><rect class="cls-2" x="825.6" y="437.69" width="206.4" height="16.12"/></g><g id="linhas_1"><rect class="cls-2" y="24" width="280" height="16.12"/><rect class="cls-2" x="752" y="24" width="280" height="16.12"/></g></svg>