<svg width="68" height="68" viewBox="0 0 68 68" fill="none" xmlns="http://www.w3.org/2000/svg">
<circle cx="34" cy="34" r="33" fill="#F6C3FF" stroke="#7F0098" stroke-width="2"/>
<g clip-path="url(#clip0_277_503)">
<path d="M33.625 16.6666C30.3823 16.6666 18.9583 18 18.9583 31.3333V35.3333V36.6666V38C18.9583 40.8813 20.6259 42.4153 21.9193 43.0286C23.2099 46.2099 26.981 51.3333 33.625 51.3333C34.3583 51.3333 35.0509 51.2605 35.7135 51.1458C34.9349 50.4218 34.2626 49.5855 33.7266 48.6588C33.6919 48.6601 33.6597 48.6666 33.625 48.6666C32.5161 48.6666 31.5364 48.4771 30.651 48.1822C30.8491 47.9436 30.9577 47.6434 30.9583 47.3333C30.9583 46.9797 30.8179 46.6405 30.5678 46.3905C30.3178 46.1404 29.9786 46 29.625 46C29.3246 46.0002 29.033 46.102 28.7976 46.2887C28.5622 46.4754 28.3968 46.7361 28.3281 47.0286C27.676 46.5724 27.122 46.0545 26.6406 45.526C26.8447 45.2861 26.9573 44.9816 26.9583 44.6666C26.9583 44.313 26.8179 43.9739 26.5678 43.7238C26.3178 43.4738 25.9786 43.3333 25.625 43.3333C25.4518 43.3331 25.2802 43.3668 25.1198 43.4322C24.5518 42.4495 24.2545 41.669 24.224 41.5781L23.9922 40.8828L23.2813 40.7057C23.2639 40.7004 21.625 40.2653 21.625 38V36.6666H22.9583C22.9583 27.3333 36.2917 34 40.2917 24.6666C40.2917 24.6666 43.0076 27.1748 43.9609 32.7161C45.5289 32.8628 46.9943 33.3521 48.2917 34.1041V31.3333C48.2917 26 45.625 19.3333 40.2917 19.3333C40.2917 19.3333 38.9583 16.6666 33.625 16.6666ZM42.9583 35.3333C38.5558 35.3333 34.9583 38.9308 34.9583 43.3333C34.9583 47.7358 38.5558 51.3333 42.9583 51.3333C44.6803 51.3333 46.2748 50.7774 47.5833 49.8437L51.349 53.6093C51.4718 53.7373 51.619 53.8395 51.7818 53.9098C51.9447 53.9802 52.1199 54.0174 52.2973 54.0192C52.4747 54.021 52.6506 53.9874 52.8149 53.9204C52.9791 53.8533 53.1283 53.7542 53.2538 53.6287C53.3792 53.5033 53.4783 53.3541 53.5454 53.1898C53.6125 53.0256 53.6461 52.8496 53.6443 52.6722C53.6425 52.4949 53.6053 52.3196 53.5349 52.1568C53.4645 51.9939 53.3623 51.8468 53.2344 51.7239L49.4688 47.9583C50.4024 46.6497 50.9583 45.0553 50.9583 43.3333C50.9583 38.9308 47.3608 35.3333 42.9583 35.3333ZM42.9583 38C44.3498 38 45.598 38.5385 46.5443 39.401C46.2773 39.4882 46.0446 39.6576 45.8795 39.8848C45.7145 40.1121 45.6254 40.3857 45.625 40.6666C45.625 41.0202 45.7655 41.3594 46.0155 41.6094C46.2656 41.8595 46.6047 42 46.9583 42C47.1491 41.9995 47.3376 41.9581 47.511 41.8786C47.6844 41.7991 47.8387 41.6833 47.9635 41.539C48.1635 42.1015 48.2917 42.6993 48.2917 43.3333C48.2917 46.2946 45.9196 48.6666 42.9583 48.6666C39.997 48.6666 37.625 46.2946 37.625 43.3333C37.625 40.372 39.997 38 42.9583 38ZM26.2917 39.3333C26.1149 39.3333 25.9453 39.4035 25.8203 39.5286C25.6952 39.6536 25.625 39.8231 25.625 40C25.625 40.1768 25.6952 40.3463 25.8203 40.4714C25.9453 40.5964 26.1149 40.6666 26.2917 40.6666C26.4685 40.6666 26.638 40.5964 26.7631 40.4714C26.8881 40.3463 26.9583 40.1768 26.9583 40C26.9583 39.8231 26.8881 39.6536 26.7631 39.5286C26.638 39.4035 26.4685 39.3333 26.2917 39.3333ZM29.625 42C29.2714 42 28.9322 42.1404 28.6822 42.3905C28.4321 42.6405 28.2917 42.9797 28.2917 43.3333C28.2917 43.6869 28.4321 44.0261 28.6822 44.2761C28.9322 44.5261 29.2714 44.6666 29.625 44.6666C29.9786 44.6666 30.3178 44.5261 30.5678 44.2761C30.8179 44.0261 30.9583 43.6869 30.9583 43.3333C30.9583 42.9797 30.8179 42.6405 30.5678 42.3905C30.3178 42.1404 29.9786 42 29.625 42ZM43.625 42C43.0946 42 42.5859 42.2107 42.2108 42.5857C41.8357 42.9608 41.625 43.4695 41.625 44C41.625 44.5304 41.8357 45.0391 42.2108 45.4142C42.5859 45.7892 43.0946 46 43.625 46C44.1554 46 44.6641 45.7892 45.0392 45.4142C45.4143 45.0391 45.625 44.5304 45.625 44C45.625 43.4695 45.4143 42.9608 45.0392 42.5857C44.6641 42.2107 44.1554 42 43.625 42ZM32.9583 44.6666C32.7815 44.6666 32.612 44.7369 32.4869 44.8619C32.3619 44.9869 32.2917 45.1565 32.2917 45.3333C32.2917 45.5101 32.3619 45.6797 32.4869 45.8047C32.612 45.9297 32.7815 46 32.9583 46C33.1351 46 33.3047 45.9297 33.4297 45.8047C33.5548 45.6797 33.625 45.5101 33.625 45.3333C33.625 45.1565 33.5548 44.9869 33.4297 44.8619C33.3047 44.7369 33.1351 44.6666 32.9583 44.6666Z" fill="#7F0098"/>
</g>
<defs>
<clipPath id="clip0_277_503">
<rect width="40" height="40" fill="white" transform="translate(13.625 14)"/>
</clipPath>
</defs>
</svg>
