<svg width="68" height="68" viewBox="0 0 68 68" fill="none" xmlns="http://www.w3.org/2000/svg">
<circle cx="34" cy="34" r="33" fill="#F6C3FF" stroke="#7F0098" stroke-width="2"/>
<path d="M29.1667 16.6666V20.6666C29.1667 25.1626 28.6107 27.8893 26.5 30C24.2987 30.184 21.1667 32.2146 21.1667 35.3333C21.1667 39.3333 25.6747 39.3333 26.5 39.3333C27.8333 39.3333 29.1667 43.3333 34.5 43.3333C39.8333 43.3333 41.1667 39.3333 42.5 39.3333C43.3253 39.3333 47.8333 39.3333 47.8333 35.3333C47.8333 32.2146 44.7013 30.184 42.5 30C40.3893 27.8893 39.8333 25.1626 39.8333 20.6666V16.6666H29.1667ZM29.1667 44.6666L25.1667 48.6666H27.8333V52.6666H30.5V48.6666H33.1667L29.1667 44.6666ZM39.8333 44.6666L35.8333 48.6666H38.5V52.6666H41.1667V48.6666H43.8333L39.8333 44.6666Z" fill="#7F0098"/>
</svg>
