<svg width="68" height="68" viewBox="0 0 68 68" fill="none" xmlns="http://www.w3.org/2000/svg">
<circle cx="34" cy="34" r="33" fill="#F6C3FF" stroke="#7F0098" stroke-width="2"/>
<g clip-path="url(#clip0_277_485)">
<path d="M34.375 16.6666C31.1323 16.6666 19.7083 18 19.7083 31.3333V35.3333V36.6666C19.7083 39.548 21.3759 41.0819 22.6693 41.6953C23.3653 43.4126 24.7921 45.691 26.9948 47.427L28.2083 45C25.9483 43.0013 25.0326 40.4194 24.974 40.2447L24.7422 39.5494L24.0313 39.3724C24.0139 39.367 22.375 38.932 22.375 36.6666V35.3333H23.7083C23.7083 26 37.0417 34 41.0417 24.6666C41.0417 24.6666 45.0417 27.0133 45.0417 35.3333H46.375V36.6666C46.375 38.7906 44.9788 39.2977 44.7188 39.3724L44.0104 39.552L43.7786 40.2421C43.7186 40.4181 42.8017 43.0039 40.5417 45.0026L41.7552 47.427C43.9579 45.6897 45.3834 43.4139 46.0807 41.6979C47.3741 41.0832 49.0417 39.548 49.0417 36.6666V34V31.3333C49.0417 26 46.375 19.3333 41.0417 19.3333C41.0417 19.3333 39.7083 16.6666 34.375 16.6666ZM31.0208 36.6666L27.7083 39.9791C28.1323 40.4031 28.7166 40.6666 29.3646 40.6666C30.6579 40.6666 31.7083 39.6162 31.7083 38.3229C31.7083 37.6762 31.4448 37.0906 31.0208 36.6666ZM37.7292 36.6666C37.3052 37.0906 37.0417 37.6762 37.0417 38.3229C37.0417 39.6162 38.0921 40.6666 39.3854 40.6666C40.0334 40.6666 40.6177 40.4031 41.0417 39.9791L37.7292 36.6666ZM34.375 43.3333C33.6678 43.3333 32.9895 43.544 32.4894 43.9191C31.9893 44.2942 31.7083 44.8029 31.7083 45.3333C31.7083 45.8637 31.9893 46.3724 32.4894 46.7475C32.9895 47.1226 33.6678 47.3333 34.375 47.3333C35.0822 47.3333 35.7605 47.1226 36.2606 46.7475C36.7607 46.3724 37.0417 45.8637 37.0417 45.3333C37.0417 44.8029 36.7607 44.2942 36.2606 43.9191C35.7605 43.544 35.0822 43.3333 34.375 43.3333ZM29.6484 48.651C29.4095 48.6633 29.1782 48.7396 28.9789 48.872C28.7796 49.0044 28.6195 49.1881 28.5156 49.4036L27.849 50.7369C27.7706 50.8936 27.7239 51.0641 27.7114 51.2388C27.699 51.4135 27.7211 51.5889 27.7765 51.7551C27.8318 51.9212 27.9194 52.0748 28.0341 52.2072C28.1489 52.3395 28.2886 52.4479 28.4452 52.5262C28.6019 52.6045 28.7724 52.6512 28.9471 52.6636C29.1218 52.676 29.2972 52.6539 29.4634 52.5985C29.6295 52.5431 29.7831 52.4555 29.9154 52.3408C30.0477 52.226 30.1561 52.0863 30.2344 51.9296L30.901 50.5963C31.0091 50.3879 31.0602 50.1546 31.0491 49.9201C31.0381 49.6856 30.9654 49.4582 30.8383 49.2608C30.7112 49.0634 30.5342 48.9031 30.3253 48.796C30.1164 48.6889 29.8829 48.6389 29.6484 48.651ZM39.0625 48.651C38.8313 48.646 38.6028 48.7012 38.3994 48.8112C38.196 48.9212 38.0246 49.0822 37.9022 49.2784C37.7798 49.4746 37.7106 49.6992 37.7012 49.9303C37.6919 50.1614 37.7428 50.3909 37.849 50.5963L38.5156 51.9296C38.5939 52.0863 38.7023 52.226 38.8346 52.3408C38.9669 52.4555 39.1205 52.5431 39.2866 52.5985C39.4528 52.6539 39.6282 52.676 39.8029 52.6636C39.9776 52.6512 40.1481 52.6045 40.3048 52.5262C40.4614 52.4479 40.6011 52.3395 40.7159 52.2072C40.8306 52.0748 40.9182 51.9212 40.9735 51.7551C41.0289 51.5889 41.051 51.4135 41.0386 51.2388C41.0261 51.0641 40.9794 50.8936 40.901 50.7369L40.2344 49.4036C40.1274 49.1823 39.9613 48.995 39.7545 48.8622C39.5477 48.7293 39.3082 48.6563 39.0625 48.651ZM34.3542 49.9817C34.001 49.9872 33.6645 50.1327 33.4184 50.3861C33.1723 50.6394 33.0368 50.9801 33.0417 51.3333V52.6666C33.0392 52.8433 33.0718 53.0187 33.1377 53.1827C33.2036 53.3466 33.3014 53.4959 33.4255 53.6217C33.5495 53.7475 33.6973 53.8474 33.8604 53.9156C34.0234 53.9838 34.1983 54.0189 34.375 54.0189C34.5517 54.0189 34.7266 53.9838 34.8896 53.9156C35.0527 53.8474 35.2005 53.7475 35.3245 53.6217C35.4486 53.4959 35.5464 53.3466 35.6123 53.1827C35.6782 53.0187 35.7108 52.8433 35.7083 52.6666V51.3333C35.7108 51.1549 35.6774 50.9778 35.6102 50.8126C35.543 50.6473 35.4433 50.4972 35.317 50.3712C35.1907 50.2452 35.0404 50.1458 34.8751 50.0789C34.7097 50.012 34.5325 49.9789 34.3542 49.9817Z" fill="#7F0098"/>
</g>
<defs>
<clipPath id="clip0_277_485">
<rect width="40" height="40" fill="white" transform="translate(14.375 14)"/>
</clipPath>
</defs>
</svg>
