<svg width="68" height="68" viewBox="0 0 68 68" fill="none" xmlns="http://www.w3.org/2000/svg">
<circle cx="34" cy="34" r="33" fill="#F6C3FF" stroke="#7F0098" stroke-width="2"/>
<path d="M38.2833 37.7667C38.45 37.85 38.65 37.9 38.8333 37.9C39 37.9 39.1833 37.8667 39.35 37.7833C39.6833 37.6333 39.95 37.3333 40.05 36.9833L41.7166 31C41.8833 30.4167 41.6 29.8167 41.0666 29.55L38.65 28.35C38.5166 28.2833 38.4166 28.1333 38.4166 27.9833V19C38.4166 18.3167 37.85 17.75 37.1666 17.75H30.5C29.8166 17.75 29.25 18.3167 29.25 19V27.9667C29.25 28.1333 29.1666 28.2667 29.0166 28.3333L26.6 29.5333C26.0666 29.8 25.8 30.4167 25.95 30.9833L27.6166 36.9667C27.7166 37.3333 27.9666 37.6167 28.3166 37.7667C28.65 37.9167 29.05 37.9167 29.3833 37.75C30.0166 37.4333 30.6333 37.0833 31.2166 36.6833C31.6833 36.3667 32.1 36.0333 32.4833 35.6833C33.2666 35 34.4 35 35.1833 35.6833C35.5666 36.0167 35.9833 36.35 36.45 36.6833C37.0333 37.0833 37.65 37.45 38.2833 37.7667Z" fill="#7F0098"/>
<path d="M47.8333 27.25C46.15 25 43.65 23.4833 40.9166 22.9667V26.6833L42.1833 27.3167C43.7833 28.1167 44.6 29.95 44.1166 31.6833L42.45 37.6667C42.15 38.75 41.3833 39.6167 40.3666 40.0833C39.8666 40.3 39.3666 40.4167 38.8333 40.4167C38.2666 40.4167 37.7 40.2833 37.1833 40.0333C36.75 39.8167 36.3333 39.55 35.9166 39.2833V41.5167C35.9166 45.4167 39.1 48.6 43 48.6C46.9 48.6 50.0833 45.4167 50.0833 41.5167V34.0167C50.0833 31.6 49.2833 29.2 47.8333 27.2667V27.25Z" fill="#7F0098"/>
<path d="M28.8333 40.4C28.3 40.4 27.7833 40.2833 27.3 40.0833C26.2666 39.6167 25.5166 38.75 25.2166 37.6667L23.55 31.6833C23.0666 29.9667 23.8833 28.1167 25.4833 27.3167L26.75 26.6833V22.9667C24.0166 23.4833 21.5166 25 19.8333 27.25C18.3833 29.1833 17.5833 31.5833 17.5833 34V41.5C17.5833 45.4 20.7666 48.5833 24.6666 48.5833C28.5666 48.5833 31.75 45.4 31.75 41.5V39.2667C31.3333 39.5167 30.9333 39.8 30.4833 40C29.95 40.25 29.3833 40.3833 28.8333 40.3833V40.4Z" fill="#7F0098"/>
</svg>
