<svg width="68" height="68" viewBox="0 0 68 68" fill="none" xmlns="http://www.w3.org/2000/svg">
<circle cx="34" cy="34" r="33" fill="#F6C3FF" stroke="#7F0098" stroke-width="2"/>
<path d="M19.4714 16.6693C19.466 16.6733 19.4637 16.6744 19.4583 16.6797V51.3334H24.7917V49.6849C24.7917 48.4543 25.896 47.5187 27.1094 47.7214L29.7031 48.1537C31.3191 48.423 32.7917 47.1778 32.7917 45.5391V44.2396L30.3724 43.8542C29.4617 43.7075 28.7917 42.9214 28.7917 42C28.7917 41.0787 29.4617 40.2925 30.3724 40.1459L32.7917 39.7605V37.6589L35.8203 36.6146C36.0996 36.5358 36.3455 36.3681 36.5208 36.1369C36.6961 35.9057 36.7912 35.6235 36.7917 35.3334C36.7913 34.9984 36.6649 34.6758 36.4375 34.4297L32.7396 29.9974C32.1969 22.5278 27.1129 16.6743 19.4714 16.6693ZM48.7917 32.6667C48.438 32.6667 48.0989 32.8072 47.8489 33.0572C47.5988 33.3073 47.4583 33.6464 47.4583 34C47.4583 34.3537 47.5988 34.6928 47.8489 34.9429C48.0989 35.1929 48.438 35.3334 48.7917 35.3334C49.1453 35.3334 49.4844 35.1929 49.7345 34.9429C49.9845 34.6928 50.125 34.3537 50.125 34C50.125 33.6464 49.9845 33.3073 49.7345 33.0572C49.4844 32.8072 49.1453 32.6667 48.7917 32.6667ZM44.7917 35.3334C44.438 35.3334 44.0989 35.4738 43.8489 35.7239C43.5988 35.9739 43.4583 36.3131 43.4583 36.6667C43.4583 37.0203 43.5988 37.3595 43.8489 37.6095C44.0989 37.8596 44.438 38 44.7917 38C45.1453 38 45.4844 37.8596 45.7345 37.6095C45.9845 37.3595 46.125 37.0203 46.125 36.6667C46.125 36.3131 45.9845 35.9739 45.7345 35.7239C45.4844 35.4738 45.1453 35.3334 44.7917 35.3334ZM40.7917 38C40.438 38 40.0989 38.1405 39.8489 38.3906C39.5988 38.6406 39.4583 38.9798 39.4583 39.3334C39.4583 39.687 39.5988 40.0261 39.8489 40.2762C40.0989 40.5262 40.438 40.6667 40.7917 40.6667C41.1453 40.6667 41.4844 40.5262 41.7345 40.2762C41.9845 40.0261 42.125 39.687 42.125 39.3334C42.125 38.9798 41.9845 38.6406 41.7345 38.3906C41.4844 38.1405 41.1453 38 40.7917 38ZM48.7917 38C48.438 38 48.0989 38.1405 47.8489 38.3906C47.5988 38.6406 47.4583 38.9798 47.4583 39.3334C47.4583 39.687 47.5988 40.0261 47.8489 40.2762C48.0989 40.5262 48.438 40.6667 48.7917 40.6667C49.1453 40.6667 49.4844 40.5262 49.7345 40.2762C49.9845 40.0261 50.125 39.687 50.125 39.3334C50.125 38.9798 49.9845 38.6406 49.7345 38.3906C49.4844 38.1405 49.1453 38 48.7917 38ZM36.7917 40.6667C36.438 40.6667 36.0989 40.8072 35.8489 41.0572C35.5988 41.3073 35.4583 41.6464 35.4583 42C35.4583 42.3537 35.5988 42.6928 35.8489 42.9429C36.0989 43.1929 36.438 43.3334 36.7917 43.3334C37.1453 43.3334 37.4844 43.1929 37.7345 42.9429C37.9845 42.6928 38.125 42.3537 38.125 42C38.125 41.6464 37.9845 41.3073 37.7345 41.0572C37.4844 40.8072 37.1453 40.6667 36.7917 40.6667ZM44.7917 40.6667C44.438 40.6667 44.0989 40.8072 43.8489 41.0572C43.5988 41.3073 43.4583 41.6464 43.4583 42C43.4583 42.3537 43.5988 42.6928 43.8489 42.9429C44.0989 43.1929 44.438 43.3334 44.7917 43.3334C45.1453 43.3334 45.4844 43.1929 45.7345 42.9429C45.9845 42.6928 46.125 42.3537 46.125 42C46.125 41.6464 45.9845 41.3073 45.7345 41.0572C45.4844 40.8072 45.1453 40.6667 44.7917 40.6667ZM40.7917 43.3334C40.438 43.3334 40.0989 43.4738 39.8489 43.7239C39.5988 43.9739 39.4583 44.3131 39.4583 44.6667C39.4583 45.0203 39.5988 45.3595 39.8489 45.6095C40.0989 45.8596 40.438 46 40.7917 46C41.1453 46 41.4844 45.8596 41.7345 45.6095C41.9845 45.3595 42.125 45.0203 42.125 44.6667C42.125 44.3131 41.9845 43.9739 41.7345 43.7239C41.4844 43.4738 41.1453 43.3334 40.7917 43.3334ZM48.7917 43.3334C48.438 43.3334 48.0989 43.4738 47.8489 43.7239C47.5988 43.9739 47.4583 44.3131 47.4583 44.6667C47.4583 45.0203 47.5988 45.3595 47.8489 45.6095C48.0989 45.8596 48.438 46 48.7917 46C49.1453 46 49.4844 45.8596 49.7345 45.6095C49.9845 45.3595 50.125 45.0203 50.125 44.6667C50.125 44.3131 49.9845 43.9739 49.7345 43.7239C49.4844 43.4738 49.1453 43.3334 48.7917 43.3334ZM44.7917 46C44.438 46 44.0989 46.1405 43.8489 46.3906C43.5988 46.6406 43.4583 46.9798 43.4583 47.3334C43.4583 47.687 43.5988 48.0261 43.8489 48.2762C44.0989 48.5262 44.438 48.6667 44.7917 48.6667C45.1453 48.6667 45.4844 48.5262 45.7345 48.2762C45.9845 48.0261 46.125 47.687 46.125 47.3334C46.125 46.9798 45.9845 46.6406 45.7345 46.3906C45.4844 46.1405 45.1453 46 44.7917 46ZM48.7917 48.6667C48.438 48.6667 48.0989 48.8072 47.8489 49.0572C47.5988 49.3073 47.4583 49.6464 47.4583 50C47.4583 50.3537 47.5988 50.6928 47.8489 50.9429C48.0989 51.1929 48.438 51.3334 48.7917 51.3334C49.1453 51.3334 49.4844 51.1929 49.7345 50.9429C49.9845 50.6928 50.125 50.3537 50.125 50C50.125 49.6464 49.9845 49.3073 49.7345 49.0572C49.4844 48.8072 49.1453 48.6667 48.7917 48.6667Z" fill="#7F0098"/>
</svg>
