<svg width="68" height="68" viewBox="0 0 68 68" fill="none" xmlns="http://www.w3.org/2000/svg">
<circle cx="34" cy="34" r="33" fill="#F6C3FF" stroke="#7F0098" stroke-width="2"/>
<path d="M22.825 42.7333L21.5417 44.6499C21.0083 45.4499 20.825 46.4166 21.025 47.3666C21.225 48.2999 21.775 49.1166 22.5917 49.6499C23.225 50.0666 23.9417 50.2833 24.6417 50.2833C25.7917 50.2833 26.925 49.7333 27.5917 48.7166L28.8417 46.8499L24.8083 44.1666L22.825 42.7333Z" fill="#7F0098"/>
<path d="M45.8583 22.5167C45.525 20.9667 44.6083 19.6333 43.275 18.7333C40.5083 16.8833 36.7917 17.5667 34.9917 20.25L28.675 29.6833C28.0417 30.6333 27.7083 31.75 27.725 32.9167V34.3667C27.7583 35.0167 27.575 35.6333 27.225 36.1667L24.2417 40.6167L28.1917 43.4167L30.2417 44.7667L33.275 40.2333C33.625 39.7 34.125 39.3 34.7417 39.0667L36.0917 38.5333C37.175 38.1167 38.075 37.3833 38.7083 36.4333L45.025 27C45.9083 25.6833 46.2083 24.1 45.8583 22.55V22.5167ZM38.475 28.15L35.2583 32.95C35.025 33.3167 34.625 33.5 34.225 33.5C33.9917 33.5 33.7417 33.4333 33.525 33.2833C32.9583 32.9 32.7917 32.1167 33.175 31.55L36.3917 26.75C36.775 26.1833 37.5417 26.0167 38.125 26.4C38.6917 26.7833 38.8583 27.5667 38.475 28.1333V28.15Z" fill="#7F0098"/>
</svg>
